<svg width="1440" height="973" viewBox="0 0 1440 973" fill="none" xmlns="http://www.w3.org/2000/svg">
<g opacity="0.05">
<g clip-path="url(#clip0_23_2979)">
<path d="M1442.04 99.8949C1441.08 97.9737 1439.99 96.7633 1438.71 96.19C1433.9 94.0583 1430.93 89.2561 1431.71 84.5499C1432.49 79.8443 1436.88 76.1005 1442.12 75.6346C1443.51 75.5067 1444.94 74.7131 1446.46 73.2027C1448.32 71.3645 1450.82 70.7972 1452.99 71.722C1455.59 72.8341 1457.51 76.2498 1456.83 80.3741C1456.54 82.1179 1455.81 83.6997 1454.74 84.9465C1454.02 85.7739 1453.52 86.9778 1453.32 88.1299C1453.13 89.2814 1453.25 90.4245 1453.66 91.4514C1454.28 92.9835 1454.45 94.7048 1454.17 96.4327C1453.48 100.555 1450.58 103.19 1447.74 103.403C1445.39 103.58 1443.2 102.233 1442.04 99.8949Z" fill="#050402"/>
<path d="M1433.69 72.5993C1430.96 72.1466 1426.97 69.2677 1427.4 66.7085C1427.82 64.1498 1432.53 62.7121 1435.26 63.1647C1437.86 63.596 1439.62 66.0639 1439.19 68.6643C1438.76 71.2648 1436.29 73.0305 1433.69 72.5993V72.5993Z" fill="#050402"/>
<path d="M1421.9 99.8872C1422.32 97.3285 1427.02 95.8908 1429.75 96.3435C1432.35 96.7747 1434.12 99.2426 1433.69 101.843C1433.26 104.443 1430.79 106.209 1428.19 105.778C1425.46 105.325 1421.47 102.446 1421.9 99.8872V99.8872Z" fill="#050402"/>
<path d="M1421.88 85.3441C1424.48 85.7754 1426.25 88.2433 1425.82 90.8438C1425.39 93.4442 1422.92 95.21 1420.32 94.7786C1417.59 94.326 1413.6 91.4472 1414.03 88.8879C1414.45 86.3287 1419.15 84.8914 1421.88 85.3441Z" fill="#050402"/>
<path d="M1428.19 76.5348C1427.76 79.1352 1425.29 80.901 1422.69 80.4697C1419.96 80.017 1415.97 77.1376 1416.4 74.579C1416.82 72.0197 1421.53 70.5819 1424.26 71.0345C1426.86 71.4659 1428.62 73.9338 1428.19 76.5348Z" fill="#050402"/>
<path d="M1395.5 131.115C1394.54 129.194 1393.3 127.957 1392.01 127.384C1387.2 125.252 1384.42 120.319 1385.2 115.613C1385.98 110.907 1390.18 107.295 1395.42 106.829C1396.82 106.701 1398.4 105.933 1399.93 104.423C1401.79 102.585 1404.28 102.017 1406.45 102.942C1409.06 104.054 1410.97 107.47 1410.29 111.594C1410 113.338 1409.28 114.92 1408.2 116.167C1407.48 116.994 1407 118.041 1406.81 119.193C1406.62 120.344 1406.71 121.645 1407.12 122.672C1407.74 124.204 1407.92 125.925 1407.63 127.653C1406.94 131.775 1404.04 134.41 1401.2 134.624C1398.85 134.8 1396.66 133.453 1395.5 131.115V131.115Z" fill="#050402"/>
<path d="M1387.15 103.82C1384.42 103.367 1380.43 100.488 1380.86 97.9284C1381.28 95.3698 1385.99 93.9321 1388.72 94.3847C1391.32 94.816 1393.08 97.2839 1392.65 99.8843C1392.22 102.485 1389.75 104.251 1387.15 103.82Z" fill="#050402"/>
<path d="M1375.36 131.107C1375.78 128.549 1380.49 127.111 1383.21 127.563C1385.82 127.995 1387.58 130.463 1387.15 133.063C1386.72 135.664 1384.25 137.43 1381.65 136.999C1378.92 136.546 1374.93 133.666 1375.36 131.107V131.107Z" fill="#050402"/>
<path d="M1375.35 116.564C1377.95 116.995 1379.71 119.463 1379.28 122.064C1378.85 124.664 1376.38 126.43 1373.78 125.999C1371.05 125.546 1367.06 122.667 1367.49 120.108C1367.91 117.549 1372.62 116.111 1375.35 116.564V116.564Z" fill="#050402"/>
<path d="M1377.72 102.255C1380.32 102.687 1382.08 105.154 1381.65 107.755C1381.22 110.355 1378.75 112.121 1376.15 111.69C1373.42 111.237 1369.43 108.358 1369.86 105.799C1370.28 103.24 1374.99 101.803 1377.72 102.255Z" fill="#050402"/>
</g>
<g clip-path="url(#clip1_23_2979)">
<path d="M1442.04 99.8949C1441.08 97.9737 1439.99 96.7633 1438.71 96.19C1433.9 94.0583 1430.93 89.2561 1431.71 84.5499C1432.49 79.8443 1436.88 76.1005 1442.12 75.6346C1443.51 75.5067 1444.94 74.7131 1446.46 73.2027C1448.32 71.3645 1450.82 70.7972 1452.99 71.722C1455.59 72.8341 1457.51 76.2498 1456.83 80.3741C1456.54 82.1179 1455.81 83.6997 1454.74 84.9465C1454.02 85.7739 1453.52 86.9778 1453.32 88.1299C1453.13 89.2814 1453.25 90.4245 1453.66 91.4514C1454.28 92.9835 1454.45 94.7048 1454.17 96.4327C1453.48 100.555 1450.58 103.19 1447.74 103.403C1445.39 103.58 1443.2 102.233 1442.04 99.8949Z" fill="#050402"/>
<path d="M1433.69 72.5993C1430.96 72.1466 1426.97 69.2677 1427.4 66.7085C1427.82 64.1498 1432.53 62.7121 1435.26 63.1647C1437.86 63.596 1439.62 66.0639 1439.19 68.6643C1438.76 71.2648 1436.29 73.0305 1433.69 72.5993V72.5993Z" fill="#050402"/>
<path d="M1421.9 99.8872C1422.32 97.3285 1427.02 95.8908 1429.75 96.3435C1432.35 96.7747 1434.12 99.2426 1433.69 101.843C1433.26 104.443 1430.79 106.209 1428.19 105.778C1425.46 105.325 1421.47 102.446 1421.9 99.8872V99.8872Z" fill="#050402"/>
<path d="M1421.88 85.3441C1424.48 85.7754 1426.25 88.2433 1425.82 90.8438C1425.39 93.4442 1422.92 95.21 1420.32 94.7786C1417.59 94.326 1413.6 91.4472 1414.03 88.8879C1414.45 86.3287 1419.15 84.8914 1421.88 85.3441Z" fill="#050402"/>
<path d="M1428.19 76.5348C1427.76 79.1352 1425.29 80.901 1422.69 80.4697C1419.96 80.017 1415.97 77.1376 1416.4 74.579C1416.82 72.0197 1421.53 70.5819 1424.26 71.0345C1426.86 71.4659 1428.62 73.9338 1428.19 76.5348Z" fill="#050402"/>
<path d="M1395.5 131.115C1394.54 129.194 1393.3 127.957 1392.01 127.384C1387.2 125.252 1384.42 120.319 1385.2 115.613C1385.98 110.907 1390.18 107.295 1395.42 106.829C1396.82 106.701 1398.4 105.933 1399.93 104.423C1401.79 102.585 1404.28 102.017 1406.45 102.942C1409.06 104.054 1410.97 107.47 1410.29 111.594C1410 113.338 1409.28 114.92 1408.2 116.167C1407.48 116.994 1407 118.041 1406.81 119.193C1406.62 120.344 1406.71 121.645 1407.12 122.672C1407.74 124.204 1407.92 125.925 1407.63 127.653C1406.94 131.775 1404.04 134.41 1401.2 134.624C1398.85 134.8 1396.66 133.453 1395.5 131.115V131.115Z" fill="#050402"/>
<path d="M1387.15 103.82C1384.42 103.367 1380.43 100.488 1380.86 97.9284C1381.28 95.3698 1385.99 93.9321 1388.72 94.3847C1391.32 94.816 1393.08 97.2839 1392.65 99.8843C1392.22 102.485 1389.75 104.251 1387.15 103.82Z" fill="#050402"/>
<path d="M1375.36 131.107C1375.78 128.549 1380.49 127.111 1383.21 127.563C1385.82 127.995 1387.58 130.463 1387.15 133.063C1386.72 135.664 1384.25 137.43 1381.65 136.999C1378.92 136.546 1374.93 133.666 1375.36 131.107V131.107Z" fill="#050402"/>
<path d="M1375.35 116.564C1377.95 116.995 1379.71 119.463 1379.28 122.064C1378.85 124.664 1376.38 126.43 1373.78 125.999C1371.05 125.546 1367.06 122.667 1367.49 120.108C1367.91 117.549 1372.62 116.111 1375.35 116.564V116.564Z" fill="#050402"/>
<path d="M1377.72 102.255C1380.32 102.687 1382.08 105.154 1381.65 107.755C1381.22 110.355 1378.75 112.121 1376.15 111.69C1373.42 111.237 1369.43 108.358 1369.86 105.799C1370.28 103.24 1374.99 101.803 1377.72 102.255Z" fill="#050402"/>
</g>
<g clip-path="url(#clip2_23_2979)">
<path d="M1321.04 102.145C1320.08 100.224 1318.99 99.0138 1317.71 98.4405C1312.9 96.3088 1309.93 91.5065 1310.71 86.8003C1311.49 82.0947 1315.88 78.3509 1321.12 77.8851C1322.51 77.7571 1323.94 76.9635 1325.46 75.4532C1327.32 73.615 1329.82 73.0476 1331.99 73.9725C1334.59 75.0846 1336.51 78.5003 1335.83 82.6246C1335.54 84.3684 1334.81 85.9502 1333.74 87.197C1333.02 88.0244 1332.52 89.2283 1332.32 90.3804C1332.13 91.5319 1332.25 92.675 1332.66 93.7019C1333.28 95.234 1333.45 96.9553 1333.17 98.6832C1332.48 102.805 1329.58 105.44 1326.74 105.654C1324.39 105.83 1322.2 104.484 1321.04 102.145Z" fill="#050402"/>
<path d="M1312.69 74.8498C1309.96 74.3971 1305.97 71.5182 1306.4 68.959C1306.82 66.4003 1311.53 64.9626 1314.26 65.4152C1316.86 65.8465 1318.62 68.3144 1318.19 70.9148C1317.76 73.5152 1315.29 75.281 1312.69 74.8498V74.8498Z" fill="#050402"/>
<path d="M1300.9 102.138C1301.32 99.579 1306.02 98.1413 1308.75 98.5939C1311.35 99.0252 1313.12 101.493 1312.69 104.094C1312.26 106.694 1309.79 108.46 1307.19 108.028C1304.46 107.576 1300.47 104.697 1300.9 102.138V102.138Z" fill="#050402"/>
<path d="M1300.88 87.5946C1303.48 88.0259 1305.25 90.4938 1304.82 93.0943C1304.39 95.6947 1301.92 97.4605 1299.32 97.0291C1296.59 96.5764 1292.6 93.6977 1293.03 91.1384C1293.45 88.5792 1298.15 87.1419 1300.88 87.5946Z" fill="#050402"/>
<path d="M1307.19 78.7853C1306.76 81.3857 1304.29 83.1515 1301.69 82.7202C1298.96 82.2675 1294.97 79.3881 1295.4 76.8295C1295.82 74.2702 1300.53 72.8323 1303.26 73.285C1305.86 73.7164 1307.62 76.1843 1307.19 78.7853Z" fill="#050402"/>
<path d="M1274.5 133.366C1273.54 131.444 1272.3 130.208 1271.01 129.635C1266.2 127.503 1263.42 122.569 1264.2 117.863C1264.98 113.158 1269.18 109.545 1274.42 109.079C1275.82 108.951 1277.4 108.184 1278.93 106.673C1280.79 104.835 1283.28 104.268 1285.45 105.193C1288.06 106.305 1289.97 109.72 1289.29 113.845C1289 115.589 1288.28 117.171 1287.2 118.417C1286.48 119.245 1286 120.291 1285.81 121.443C1285.62 122.595 1285.71 123.895 1286.12 124.922C1286.74 126.454 1286.92 128.176 1286.63 129.903C1285.94 134.025 1283.04 136.66 1280.2 136.874C1277.85 137.05 1275.66 135.704 1274.5 133.366V133.366Z" fill="#050402"/>
<path d="M1266.15 106.07C1263.42 105.618 1259.43 102.738 1259.86 100.179C1260.28 97.6203 1264.99 96.1825 1267.72 96.6352C1270.32 97.0665 1272.08 99.5344 1271.65 102.135C1271.22 104.736 1268.75 106.502 1266.15 106.07Z" fill="#050402"/>
<path d="M1254.36 133.358C1254.78 130.799 1259.49 129.361 1262.21 129.814C1264.82 130.245 1266.58 132.713 1266.15 135.313C1265.72 137.915 1263.25 139.68 1260.65 139.249C1257.92 138.796 1253.93 135.917 1254.36 133.358V133.358Z" fill="#050402"/>
<path d="M1254.35 118.815C1256.95 119.246 1258.71 121.714 1258.28 124.314C1257.85 126.915 1255.38 128.68 1252.78 128.249C1250.05 127.797 1246.06 124.918 1246.49 122.358C1246.91 119.799 1251.62 118.362 1254.35 118.815V118.815Z" fill="#050402"/>
<path d="M1256.72 104.506C1259.32 104.937 1261.08 107.405 1260.65 110.005C1260.22 112.606 1257.75 114.372 1255.15 113.94C1252.42 113.488 1248.43 110.608 1248.86 108.05C1249.28 105.49 1253.99 104.053 1256.72 104.506Z" fill="#050402"/>
</g>
<g clip-path="url(#clip3_23_2979)">
<path d="M1200.04 104.396C1199.08 102.474 1197.99 101.264 1196.71 100.691C1191.9 98.559 1188.93 93.7568 1189.71 89.0506C1190.49 84.345 1194.88 80.6012 1200.12 80.1354C1201.51 80.0074 1202.94 79.2138 1204.46 77.7034C1206.32 75.8652 1208.82 75.2979 1210.99 76.2227C1213.59 77.3348 1215.51 80.7505 1214.83 84.8748C1214.54 86.6187 1213.81 88.2005 1212.74 89.4472C1212.02 90.2747 1211.52 91.4785 1211.32 92.6307C1211.13 93.7822 1211.25 94.9252 1211.66 95.9522C1212.28 97.4843 1212.45 99.2055 1212.17 100.933C1211.48 105.055 1208.58 107.69 1205.74 107.904C1203.39 108.08 1201.2 106.734 1200.04 104.396Z" fill="#050402"/>
<path d="M1191.69 77.1C1188.96 76.6473 1184.97 73.7685 1185.4 71.2092C1185.82 68.6506 1190.53 67.2128 1193.26 67.6655C1195.86 68.0967 1197.62 70.5646 1197.19 73.1651C1196.76 75.7655 1194.29 77.5313 1191.69 77.1V77.1Z" fill="#050402"/>
<path d="M1179.9 104.388C1180.32 101.829 1185.02 100.392 1187.75 100.844C1190.35 101.275 1192.12 103.743 1191.69 106.344C1191.26 108.944 1188.79 110.71 1186.19 110.279C1183.46 109.826 1179.47 106.947 1179.9 104.388V104.388Z" fill="#050402"/>
<path d="M1179.88 89.8448C1182.48 90.2762 1184.25 92.7441 1183.82 95.3445C1183.39 97.9449 1180.92 99.7107 1178.32 99.2793C1175.59 98.8267 1171.6 95.9479 1172.03 93.3887C1172.45 90.8294 1177.15 89.3922 1179.88 89.8448Z" fill="#050402"/>
<path d="M1186.19 81.0355C1185.76 83.636 1183.29 85.4018 1180.69 84.9704C1177.96 84.5177 1173.97 81.6383 1174.4 79.0797C1174.82 76.5204 1179.53 75.0826 1182.26 75.5352C1184.86 75.9666 1186.62 78.4345 1186.19 81.0355Z" fill="#050402"/>
<path d="M1153.5 135.616C1152.54 133.695 1151.3 132.458 1150.01 131.885C1145.2 129.753 1142.42 124.82 1143.2 120.113C1143.98 115.408 1148.18 111.795 1153.42 111.33C1154.82 111.202 1156.4 110.434 1157.93 108.924C1159.79 107.086 1162.28 106.518 1164.45 107.443C1167.06 108.555 1168.97 111.971 1168.29 116.095C1168 117.839 1167.28 119.421 1166.2 120.667C1165.48 121.495 1165 122.541 1164.81 123.694C1164.62 124.845 1164.71 126.145 1165.12 127.172C1165.74 128.704 1165.92 130.426 1165.63 132.154C1164.94 136.276 1162.04 138.911 1159.2 139.124C1156.85 139.301 1154.66 137.954 1153.5 135.616V135.616Z" fill="#050402"/>
<path d="M1145.15 108.321C1142.42 107.868 1138.43 104.988 1138.86 102.429C1139.28 99.8705 1143.99 98.4328 1146.72 98.8854C1149.32 99.3167 1151.08 101.785 1150.65 104.385C1150.22 106.986 1147.75 108.752 1145.15 108.321Z" fill="#050402"/>
<path d="M1133.36 135.608C1133.78 133.049 1138.49 131.611 1141.21 132.064C1143.82 132.495 1145.58 134.963 1145.15 137.564C1144.72 140.165 1142.25 141.931 1139.65 141.499C1136.92 141.047 1132.93 138.167 1133.36 135.608V135.608Z" fill="#050402"/>
<path d="M1133.35 121.065C1135.95 121.496 1137.71 123.964 1137.28 126.564C1136.85 129.165 1134.38 130.931 1131.78 130.499C1129.05 130.047 1125.06 127.168 1125.49 124.609C1125.91 122.049 1130.62 120.612 1133.35 121.065V121.065Z" fill="#050402"/>
<path d="M1135.72 106.756C1138.32 107.187 1140.08 109.655 1139.65 112.256C1139.22 114.856 1136.75 116.622 1134.15 116.191C1131.42 115.738 1127.43 112.858 1127.86 110.3C1128.28 107.741 1132.99 106.303 1135.72 106.756Z" fill="#050402"/>
</g>
<g clip-path="url(#clip4_23_2979)">
<path d="M1079.04 106.646C1078.08 104.725 1076.99 103.514 1075.71 102.941C1070.9 100.809 1067.93 96.007 1068.71 91.3008C1069.49 86.5952 1073.88 82.8514 1079.12 82.3856C1080.51 82.2576 1081.94 81.464 1083.46 79.9537C1085.32 78.1155 1087.82 77.5481 1089.99 78.473C1092.59 79.5851 1094.51 83.0008 1093.83 87.1251C1093.54 88.8689 1092.81 90.4507 1091.74 91.6975C1091.02 92.5249 1090.52 93.7288 1090.32 94.8809C1090.13 96.0324 1090.25 97.1755 1090.66 98.2024C1091.28 99.7345 1091.45 101.456 1091.17 103.184C1090.48 107.306 1087.58 109.941 1084.74 110.154C1082.39 110.331 1080.2 108.984 1079.04 106.646Z" fill="#050402"/>
<path d="M1070.69 79.3503C1067.96 78.8976 1063.97 76.0187 1064.4 73.4595C1064.82 70.9008 1069.53 69.4631 1072.26 69.9157C1074.86 70.347 1076.62 72.8149 1076.19 75.4153C1075.76 78.0157 1073.29 79.7815 1070.69 79.3503V79.3503Z" fill="#050402"/>
<path d="M1058.9 106.638C1059.32 104.08 1064.02 102.642 1066.75 103.094C1069.35 103.526 1071.12 105.994 1070.69 108.594C1070.26 111.194 1067.79 112.96 1065.19 112.529C1062.46 112.076 1058.47 109.197 1058.9 106.638V106.638Z" fill="#050402"/>
<path d="M1058.88 92.0951C1061.48 92.5264 1063.25 94.9943 1062.82 97.5947C1062.39 100.195 1059.92 101.961 1057.32 101.53C1054.59 101.077 1050.6 98.1982 1051.03 95.6389C1051.45 93.0796 1056.15 91.6424 1058.88 92.0951Z" fill="#050402"/>
<path d="M1065.19 83.2858C1064.76 85.8862 1062.29 87.652 1059.69 87.2206C1056.96 86.768 1052.97 83.8886 1053.4 81.3299C1053.82 78.7707 1058.53 77.3328 1061.26 77.7855C1063.86 78.2168 1065.62 80.6847 1065.19 83.2858Z" fill="#050402"/>
<path d="M1032.5 137.866C1031.54 135.945 1030.3 134.708 1029.01 134.135C1024.2 132.003 1021.42 127.07 1022.2 122.364C1022.98 117.658 1027.18 114.046 1032.42 113.58C1033.82 113.452 1035.4 112.684 1036.93 111.174C1038.79 109.336 1041.28 108.768 1043.45 109.693C1046.06 110.805 1047.97 114.221 1047.29 118.345C1047 120.089 1046.28 121.671 1045.2 122.918C1044.48 123.745 1044 124.792 1043.81 125.944C1043.62 127.095 1043.71 128.396 1044.12 129.423C1044.74 130.955 1044.91 132.676 1044.63 134.404C1043.94 138.526 1041.04 141.161 1038.2 141.375C1035.85 141.551 1033.66 140.204 1032.5 137.866V137.866Z" fill="#050402"/>
<path d="M1024.15 110.571C1021.42 110.118 1017.43 107.239 1017.86 104.679C1018.28 102.121 1022.99 100.683 1025.72 101.136C1028.32 101.567 1030.08 104.035 1029.65 106.635C1029.22 109.236 1026.75 111.002 1024.15 110.571Z" fill="#050402"/>
<path d="M1012.36 137.858C1012.78 135.299 1017.49 133.862 1020.21 134.314C1022.82 134.746 1024.58 137.214 1024.15 139.814C1023.72 142.415 1021.25 144.181 1018.65 143.75C1015.92 143.297 1011.93 140.417 1012.36 137.858V137.858Z" fill="#050402"/>
<path d="M1012.34 123.315C1014.95 123.746 1016.71 126.214 1016.28 128.815C1015.85 131.415 1013.38 133.181 1010.78 132.75C1008.05 132.297 1004.06 129.418 1004.49 126.859C1004.91 124.3 1009.62 122.862 1012.34 123.315V123.315Z" fill="#050402"/>
<path d="M1014.72 109.006C1017.32 109.438 1019.08 111.905 1018.65 114.506C1018.22 117.106 1015.75 118.872 1013.15 118.441C1010.42 117.988 1006.43 115.109 1006.86 112.55C1007.28 109.991 1011.99 108.554 1014.72 109.006Z" fill="#050402"/>
</g>
<g clip-path="url(#clip5_23_2979)">
<path d="M958.036 108.896C957.081 106.975 955.992 105.765 954.705 105.191C949.899 103.06 946.93 98.2575 947.71 93.5513C948.49 88.8457 952.877 85.1019 958.117 84.6361C959.515 84.5081 960.939 83.7145 962.465 82.2042C964.325 80.366 966.824 79.7986 968.989 80.7235C971.595 81.8356 973.51 85.2512 972.826 89.3756C972.537 91.1194 971.815 92.7012 970.74 93.9479C970.022 94.7754 969.515 95.9793 969.324 97.1314C969.133 98.2829 969.249 99.426 969.658 100.453C970.277 101.985 970.454 103.706 970.167 105.434C969.483 109.556 966.578 112.191 963.736 112.405C961.387 112.581 959.203 111.235 958.036 108.896Z" fill="#050402"/>
<path d="M949.692 81.6007C946.963 81.1481 942.974 78.2692 943.398 75.7099C943.822 73.1513 948.527 71.7135 951.257 72.1662C953.857 72.5975 955.623 75.0654 955.192 77.6658C954.76 80.2662 952.292 82.032 949.692 81.6007V81.6007Z" fill="#050402"/>
<path d="M937.896 108.889C938.32 106.33 943.025 104.892 945.754 105.345C948.355 105.776 950.12 108.244 949.689 110.845C949.258 113.445 946.79 115.211 944.19 114.779C941.46 114.327 937.471 111.448 937.896 108.889V108.889Z" fill="#050402"/>
<path d="M937.884 94.3455C940.485 94.7769 942.251 97.2448 941.819 99.8452C941.388 102.446 938.92 104.211 936.319 103.78C933.59 103.327 929.601 100.449 930.026 97.8894C930.45 95.3301 935.154 93.8929 937.884 94.3455Z" fill="#050402"/>
<path d="M944.192 85.5363C943.761 88.1367 941.293 89.9025 938.692 89.4711C935.963 89.0185 931.974 86.1391 932.399 83.5804C932.823 81.0212 937.527 79.5833 940.257 80.036C942.858 80.4673 944.624 82.9352 944.192 85.5363Z" fill="#050402"/>
<path d="M911.497 140.117C910.542 138.195 909.295 136.959 908.008 136.386C903.202 134.254 900.416 129.32 901.197 124.614C901.977 119.909 906.181 116.296 911.42 115.83C912.819 115.702 914.399 114.935 915.926 113.424C917.786 111.586 920.284 111.019 922.45 111.944C925.055 113.056 926.97 116.471 926.286 120.596C925.997 122.34 925.276 123.922 924.2 125.168C923.483 125.996 923.002 127.042 922.811 128.194C922.62 129.346 922.71 130.646 923.119 131.673C923.738 133.205 923.915 134.927 923.628 136.654C922.944 140.776 920.038 143.411 917.196 143.625C914.847 143.801 912.664 142.455 911.497 140.117V140.117Z" fill="#050402"/>
<path d="M903.152 112.821C900.423 112.369 896.434 109.489 896.858 106.93C897.283 104.371 901.987 102.934 904.717 103.386C907.317 103.817 909.083 106.285 908.652 108.886C908.22 111.487 905.753 113.253 903.152 112.821Z" fill="#050402"/>
<path d="M891.356 140.109C891.78 137.55 896.485 136.112 899.215 136.565C901.815 136.996 903.581 139.464 903.15 142.064C902.718 144.666 900.25 146.431 897.65 146C894.92 145.547 890.932 142.668 891.356 140.109V140.109Z" fill="#050402"/>
<path d="M891.345 125.566C893.945 125.997 895.711 128.465 895.28 131.065C894.848 133.666 892.381 135.431 889.78 135C887.051 134.547 883.062 131.669 883.486 129.109C883.911 126.55 888.615 125.113 891.345 125.566V125.566Z" fill="#050402"/>
<path d="M893.718 111.257C896.318 111.688 898.084 114.156 897.653 116.756C897.221 119.357 894.754 121.123 892.153 120.691C889.424 120.239 885.435 117.359 885.859 114.801C886.284 112.241 890.988 110.804 893.718 111.257Z" fill="#050402"/>
</g>
<g clip-path="url(#clip6_23_2979)">
<path d="M837.036 111.147C836.081 109.226 834.992 108.015 833.705 107.442C828.899 105.31 825.929 100.508 826.71 95.8018C827.49 91.0962 831.877 87.3524 837.116 86.8866C838.515 86.7586 839.939 85.965 841.465 84.4546C843.324 82.6164 845.823 82.0491 847.989 82.974C850.595 84.0861 852.509 87.5017 851.825 91.626C851.536 93.3699 850.814 94.9517 849.739 96.1984C849.022 97.0259 848.515 98.2298 848.324 99.3819C848.133 100.533 848.249 101.676 848.658 102.703C849.277 104.235 849.453 105.957 849.167 107.685C848.483 111.806 845.577 114.442 842.736 114.655C840.387 114.832 838.203 113.485 837.036 111.147Z" fill="#050402"/>
<path d="M828.692 83.8512C825.962 83.3986 821.973 80.5197 822.398 77.9604C822.822 75.4018 827.527 73.964 830.256 74.4167C832.857 74.848 834.623 77.3159 834.191 79.9163C833.76 82.5167 831.292 84.2825 828.692 83.8512V83.8512Z" fill="#050402"/>
<path d="M816.895 111.139C817.32 108.58 822.024 107.143 824.754 107.595C827.354 108.027 829.12 110.495 828.689 113.095C828.258 115.695 825.79 117.461 823.189 117.03C820.46 116.577 816.471 113.698 816.895 111.139V111.139Z" fill="#050402"/>
<path d="M816.883 96.596C819.484 97.0274 821.25 99.4953 820.819 102.096C820.388 104.696 817.92 106.462 815.319 106.031C812.589 105.578 808.601 102.699 809.026 100.14C809.45 97.5806 814.154 96.1434 816.883 96.596Z" fill="#050402"/>
<path d="M823.192 87.7868C822.761 90.3872 820.293 92.153 817.692 91.7216C814.962 91.269 810.974 88.3896 811.398 85.8309C811.823 83.2717 816.527 81.8338 819.256 82.2865C821.858 82.7178 823.623 85.1857 823.192 87.7868Z" fill="#050402"/>
<path d="M790.496 142.367C789.542 140.446 788.295 139.209 787.008 138.636C782.202 136.504 779.416 131.571 780.196 126.865C780.977 122.159 785.18 118.547 790.42 118.081C791.818 117.953 793.399 117.185 794.926 115.675C796.786 113.837 799.284 113.269 801.45 114.194C804.055 115.306 805.97 118.722 805.286 122.846C804.997 124.59 804.275 126.172 803.2 127.419C802.482 128.246 802.001 129.293 801.81 130.445C801.619 131.596 801.709 132.897 802.119 133.924C802.738 135.456 802.914 137.177 802.628 138.905C801.944 143.027 799.038 145.662 796.196 145.876C793.847 146.052 791.664 144.705 790.496 142.367V142.367Z" fill="#050402"/>
<path d="M782.152 115.072C779.422 114.619 775.434 111.74 775.858 109.18C776.282 106.622 780.987 105.184 783.717 105.637C786.317 106.068 788.083 108.536 787.652 111.136C787.22 113.737 784.752 115.503 782.152 115.072Z" fill="#050402"/>
<path d="M770.356 142.359C770.78 139.8 775.485 138.363 778.214 138.815C780.815 139.247 782.581 141.715 782.149 144.315C781.718 146.916 779.25 148.682 776.65 148.251C773.92 147.798 769.931 144.918 770.356 142.359V142.359Z" fill="#050402"/>
<path d="M770.345 127.816C772.945 128.247 774.711 130.715 774.279 133.316C773.848 135.916 771.38 137.682 768.78 137.251C766.05 136.798 762.062 133.919 762.486 131.36C762.91 128.801 767.615 127.363 770.345 127.816V127.816Z" fill="#050402"/>
<path d="M772.718 113.507C775.318 113.939 777.084 116.406 776.653 119.007C776.221 121.607 773.753 123.373 771.153 122.942C768.423 122.489 764.435 119.61 764.859 117.051C765.283 114.492 769.988 113.055 772.718 113.507Z" fill="#050402"/>
</g>
<g clip-path="url(#clip7_23_2979)">
<path d="M716.036 113.397C715.081 111.476 713.992 110.266 712.705 109.692C707.899 107.56 704.929 102.758 705.71 98.052C706.49 93.3465 710.877 89.6027 716.116 89.1368C717.515 89.0088 718.939 88.2153 720.465 86.7049C722.324 84.8667 724.823 84.2993 726.989 85.2242C729.595 86.3363 731.509 89.752 730.825 93.8763C730.536 95.6201 729.814 97.2019 728.739 98.4487C728.022 99.2761 727.515 100.48 727.324 101.632C727.133 102.784 727.249 103.927 727.658 104.954C728.277 106.486 728.453 108.207 728.167 109.935C727.483 114.057 724.577 116.692 721.736 116.906C719.387 117.082 717.203 115.735 716.036 113.397Z" fill="#050402"/>
<path d="M707.692 86.1015C704.962 85.6488 700.973 82.7699 701.398 80.2107C701.822 77.652 706.527 76.2143 709.256 76.6669C711.857 77.0982 713.623 79.5661 713.191 82.1665C712.76 84.767 710.292 86.5327 707.692 86.1015V86.1015Z" fill="#050402"/>
<path d="M695.895 113.389C696.32 110.831 701.024 109.393 703.754 109.846C706.354 110.277 708.12 112.745 707.689 115.345C707.258 117.946 704.79 119.711 702.189 119.28C699.46 118.828 695.471 115.949 695.895 113.389V113.389Z" fill="#050402"/>
<path d="M695.883 98.8463C698.484 99.2776 700.25 101.746 699.819 104.346C699.388 106.946 696.92 108.712 694.319 108.281C691.589 107.828 687.601 104.949 688.026 102.39C688.45 99.8309 693.154 98.3936 695.883 98.8463Z" fill="#050402"/>
<path d="M702.192 90.037C701.761 92.6374 699.293 94.4032 696.692 93.9719C693.962 93.5192 689.974 90.6398 690.398 88.0812C690.823 85.5219 695.527 84.084 698.256 84.5367C700.858 84.9681 702.623 87.436 702.192 90.037Z" fill="#050402"/>
<path d="M669.496 144.617C668.542 142.696 667.295 141.46 666.008 140.886C661.202 138.755 658.416 133.821 659.196 129.115C659.977 124.409 664.18 120.797 669.42 120.331C670.818 120.203 672.399 119.435 673.926 117.925C675.786 116.087 678.284 115.52 680.45 116.445C683.055 117.557 684.97 120.972 684.286 125.096C683.997 126.84 683.275 128.422 682.2 129.669C681.482 130.496 681.001 131.543 680.81 132.695C680.619 133.847 680.709 135.147 681.119 136.174C681.738 137.706 681.914 139.427 681.628 141.155C680.944 145.277 678.038 147.912 675.196 148.126C672.847 148.302 670.664 146.956 669.496 144.617V144.617Z" fill="#050402"/>
<path d="M661.152 117.322C658.422 116.869 654.434 113.99 654.858 111.431C655.282 108.872 659.987 107.434 662.717 107.887C665.317 108.318 667.083 110.786 666.652 113.386C666.22 115.988 663.752 117.753 661.152 117.322Z" fill="#050402"/>
<path d="M649.356 144.609C649.78 142.051 654.485 140.613 657.214 141.066C659.815 141.497 661.581 143.965 661.149 146.565C660.718 149.166 658.25 150.932 655.65 150.501C652.92 150.048 648.931 147.169 649.356 144.609V144.609Z" fill="#050402"/>
<path d="M649.345 130.066C651.945 130.498 653.711 132.966 653.279 135.566C652.848 138.166 650.38 139.932 647.78 139.501C645.05 139.048 641.062 136.169 641.486 133.61C641.91 131.051 646.615 129.614 649.345 130.066V130.066Z" fill="#050402"/>
<path d="M651.718 115.758C654.318 116.189 656.084 118.657 655.653 121.257C655.221 123.858 652.753 125.623 650.153 125.192C647.423 124.739 643.435 121.86 643.859 119.301C644.283 116.742 648.988 115.305 651.718 115.758Z" fill="#050402"/>
</g>
<g clip-path="url(#clip8_23_2979)">
<path d="M595.036 115.648C594.081 113.726 592.992 112.516 591.705 111.943C586.899 109.811 583.929 105.009 584.71 100.303C585.49 95.5969 589.877 91.8531 595.116 91.3873C596.514 91.2593 597.938 90.4657 599.464 88.9554C601.324 87.1172 603.823 86.5498 605.989 87.4747C608.594 88.5868 610.509 92.0025 609.825 96.1268C609.536 97.8706 608.814 99.4524 607.739 100.699C607.022 101.527 606.515 102.73 606.324 103.883C606.133 105.034 606.249 106.177 606.658 107.204C607.277 108.736 607.453 110.457 607.166 112.185C606.483 116.307 603.577 118.942 600.735 119.156C598.387 119.332 596.202 117.986 595.036 115.648Z" fill="#050402"/>
<path d="M586.691 88.3517C583.962 87.8991 579.973 85.0202 580.397 82.4609C580.822 79.9023 585.526 78.4645 588.256 78.9172C590.856 79.3484 592.622 81.8163 592.191 84.4168C591.76 87.0172 589.292 88.783 586.691 88.3517V88.3517Z" fill="#050402"/>
<path d="M574.895 115.64C575.32 113.081 580.024 111.643 582.754 112.096C585.354 112.527 587.12 114.995 586.689 117.596C586.258 120.196 583.79 121.962 581.189 121.531C578.46 121.078 574.471 118.199 574.895 115.64V115.64Z" fill="#050402"/>
<path d="M574.883 101.097C577.484 101.528 579.25 103.996 578.819 106.596C578.388 109.197 575.92 110.963 573.319 110.531C570.589 110.079 566.601 107.2 567.025 104.641C567.45 102.081 572.154 100.644 574.883 101.097Z" fill="#050402"/>
<path d="M581.192 92.2875C580.76 94.8879 578.293 96.6537 575.692 96.2223C572.962 95.7697 568.974 92.8903 569.398 90.3317C569.823 87.7724 574.527 86.3345 577.256 86.7872C579.857 87.2186 581.623 89.6865 581.192 92.2875Z" fill="#050402"/>
<path d="M548.496 146.868C547.541 144.947 546.295 143.71 545.008 143.137C540.202 141.005 537.416 136.072 538.196 131.365C538.976 126.66 543.18 123.047 548.419 122.581C549.818 122.454 551.399 121.686 552.925 120.176C554.785 118.337 557.284 117.77 559.45 118.695C562.055 119.807 563.97 123.223 563.286 127.347C562.996 129.091 562.275 130.673 561.2 131.919C560.482 132.747 560.001 133.793 559.81 134.946C559.619 136.097 559.709 137.397 560.118 138.424C560.737 139.956 560.914 141.678 560.628 143.406C559.944 147.528 557.038 150.163 554.196 150.376C551.847 150.553 549.663 149.206 548.496 146.868V146.868Z" fill="#050402"/>
<path d="M540.152 119.573C537.422 119.12 533.433 116.24 533.858 113.681C534.282 111.122 538.987 109.685 541.716 110.137C544.317 110.569 546.083 113.037 545.651 115.637C545.22 118.238 542.752 120.004 540.152 119.573Z" fill="#050402"/>
<path d="M528.356 146.86C528.78 144.301 533.485 142.863 536.214 143.316C538.815 143.747 540.58 146.215 540.149 148.816C539.718 151.417 537.25 153.183 534.649 152.751C531.92 152.299 527.931 149.419 528.356 146.86V146.86Z" fill="#050402"/>
<path d="M528.344 132.317C530.945 132.748 532.71 135.216 532.279 137.817C531.848 140.417 529.38 142.183 526.78 141.752C524.05 141.299 520.061 138.42 520.486 135.861C520.91 133.302 525.615 131.864 528.344 132.317V132.317Z" fill="#050402"/>
<path d="M530.717 118.008C533.318 118.439 535.084 120.907 534.652 123.508C534.221 126.108 531.753 127.874 529.153 127.443C526.423 126.99 522.434 124.11 522.859 121.552C523.283 118.992 527.988 117.555 530.717 118.008Z" fill="#050402"/>
</g>
<g clip-path="url(#clip9_23_2979)">
<path d="M474.036 117.898C473.081 115.977 471.992 114.766 470.705 114.193C465.899 112.061 462.929 107.259 463.71 102.553C464.49 97.8472 468.877 94.1034 474.116 93.6376C475.514 93.5096 476.938 92.716 478.464 91.2056C480.324 89.3674 482.823 88.8001 484.989 89.7249C487.594 90.837 489.509 94.2527 488.825 98.377C488.536 100.121 487.814 101.703 486.739 102.949C486.022 103.777 485.515 104.981 485.324 106.133C485.133 107.284 485.249 108.427 485.658 109.454C486.277 110.986 486.453 112.708 486.166 114.436C485.483 118.557 482.577 121.193 479.735 121.406C477.387 121.583 475.202 120.236 474.036 117.898Z" fill="#050402"/>
<path d="M465.692 90.6022C462.962 90.1495 458.973 87.2707 459.398 84.7114C459.822 82.1528 464.527 80.715 467.256 81.1677C469.857 81.5989 471.622 84.0668 471.191 86.6673C470.76 89.2677 468.292 91.0335 465.692 90.6022V90.6022Z" fill="#050402"/>
<path d="M453.895 117.89C454.32 115.331 459.024 113.894 461.754 114.346C464.354 114.778 466.12 117.246 465.689 119.846C465.257 122.446 462.789 124.212 460.189 123.781C457.46 123.328 453.471 120.449 453.895 117.89V117.89Z" fill="#050402"/>
<path d="M453.883 103.347C456.484 103.778 458.25 106.246 457.819 108.847C457.388 111.447 454.92 113.213 452.319 112.782C449.589 112.329 445.601 109.45 446.025 106.891C446.45 104.332 451.154 102.894 453.883 103.347Z" fill="#050402"/>
<path d="M460.192 94.5377C459.76 97.1382 457.293 98.904 454.692 98.4726C451.962 98.0199 447.974 95.1405 448.398 92.5819C448.823 90.0226 453.527 88.5848 456.256 89.0374C458.857 89.4688 460.623 91.9367 460.192 94.5377Z" fill="#050402"/>
<path d="M427.496 149.118C426.541 147.197 425.295 145.96 424.008 145.387C419.202 143.255 416.416 138.322 417.196 133.616C417.976 128.91 422.18 125.298 427.419 124.832C428.818 124.704 430.399 123.936 431.925 122.426C433.785 120.588 436.284 120.02 438.45 120.945C441.055 122.057 442.97 125.473 442.286 129.597C441.996 131.341 441.275 132.923 440.2 134.17C439.482 134.997 439.001 136.044 438.81 137.196C438.619 138.347 438.709 139.648 439.118 140.675C439.737 142.207 439.914 143.928 439.628 145.656C438.944 149.778 436.038 152.413 433.196 152.627C430.847 152.803 428.663 151.456 427.496 149.118V149.118Z" fill="#050402"/>
<path d="M419.152 121.823C416.422 121.37 412.433 118.491 412.858 115.931C413.282 113.373 417.987 111.935 420.716 112.388C423.317 112.819 425.083 115.287 424.651 117.887C424.22 120.488 421.752 122.254 419.152 121.823Z" fill="#050402"/>
<path d="M407.356 149.11C407.78 146.551 412.485 145.114 415.214 145.566C417.815 145.998 419.58 148.466 419.149 151.066C418.718 153.667 416.25 155.433 413.649 155.001C410.92 154.549 406.931 151.669 407.356 149.11V149.11Z" fill="#050402"/>
<path d="M407.344 134.567C409.945 134.999 411.71 137.466 411.279 140.067C410.848 142.667 408.38 144.433 405.78 144.002C403.05 143.549 399.061 140.67 399.486 138.111C399.91 135.552 404.615 134.115 407.344 134.567V134.567Z" fill="#050402"/>
<path d="M409.717 120.258C412.318 120.69 414.084 123.157 413.652 125.758C413.221 128.358 410.753 130.124 408.153 129.693C405.423 129.24 401.434 126.361 401.859 123.802C402.283 121.243 406.988 119.806 409.717 120.258Z" fill="#050402"/>
</g>
<g clip-path="url(#clip10_23_2979)">
<path d="M353.036 120.148C352.081 118.227 350.992 117.017 349.705 116.443C344.899 114.312 341.929 109.509 342.709 104.803C343.49 100.098 347.877 96.3539 353.116 95.8881C354.514 95.7601 355.938 94.9665 357.464 93.4561C359.324 91.6179 361.823 91.0506 363.989 91.9754C366.594 93.0875 368.509 96.5032 367.825 100.628C367.536 102.371 366.814 103.953 365.739 105.2C365.021 106.027 364.514 107.231 364.323 108.383C364.132 109.535 364.248 110.678 364.658 111.705C365.277 113.237 365.453 114.958 365.166 116.686C364.483 120.808 361.577 123.443 358.735 123.657C356.386 123.833 354.202 122.487 353.036 120.148Z" fill="#050402"/>
<path d="M344.691 92.8527C341.962 92.4 337.973 89.5212 338.397 86.9619C338.822 84.4033 343.526 82.9655 346.256 83.4182C348.856 83.8494 350.622 86.3173 350.191 88.9177C349.76 91.5182 347.292 93.284 344.691 92.8527V92.8527Z" fill="#050402"/>
<path d="M332.895 120.141C333.319 117.582 338.024 116.144 340.753 116.597C343.354 117.028 345.12 119.496 344.688 122.096C344.257 124.697 341.789 126.463 339.189 126.031C336.459 125.579 332.47 122.7 332.895 120.141V120.141Z" fill="#050402"/>
<path d="M332.883 105.597C335.484 106.029 337.25 108.497 336.819 111.097C336.387 113.698 333.919 115.463 331.318 115.032C328.589 114.579 324.601 111.701 325.025 109.141C325.449 106.582 330.153 105.145 332.883 105.597Z" fill="#050402"/>
<path d="M339.191 96.7882C338.76 99.3887 336.292 101.154 333.691 100.723C330.962 100.27 326.974 97.391 327.398 94.8324C327.822 92.2731 332.527 90.8353 335.256 91.2879C337.857 91.7193 339.623 94.1872 339.191 96.7882Z" fill="#050402"/>
<path d="M306.496 151.368C305.541 149.447 304.295 148.211 303.008 147.638C298.202 145.506 295.415 140.572 296.196 135.866C296.976 131.161 301.18 127.548 306.419 127.082C307.818 126.954 309.399 126.187 310.925 124.676C312.785 122.838 315.283 122.271 317.45 123.196C320.055 124.308 321.969 127.723 321.285 131.848C320.996 133.592 320.275 135.173 319.199 136.42C318.482 137.248 318.001 138.294 317.81 139.446C317.619 140.598 317.709 141.898 318.118 142.925C318.737 144.457 318.914 146.179 318.627 147.906C317.944 152.028 315.037 154.663 312.196 154.877C309.847 155.053 307.663 153.707 306.496 151.368V151.368Z" fill="#050402"/>
<path d="M298.151 124.073C295.422 123.621 291.433 120.741 291.858 118.182C292.282 115.623 296.987 114.185 299.716 114.638C302.317 115.069 304.082 117.537 303.651 120.138C303.22 122.739 300.752 124.505 298.151 124.073Z" fill="#050402"/>
<path d="M286.355 151.361C286.78 148.802 291.484 147.364 294.214 147.817C296.814 148.248 298.58 150.716 298.149 153.316C297.717 155.917 295.25 157.683 292.649 157.252C289.92 156.799 285.931 153.92 286.355 151.361V151.361Z" fill="#050402"/>
<path d="M286.344 136.818C288.944 137.249 290.71 139.717 290.279 142.317C289.848 144.918 287.38 146.684 284.779 146.252C282.05 145.8 278.061 142.921 278.486 140.362C278.91 137.802 283.615 136.365 286.344 136.818V136.818Z" fill="#050402"/>
<path d="M288.717 122.509C291.318 122.94 293.083 125.408 292.652 128.008C292.221 130.609 289.753 132.375 287.152 131.943C284.423 131.491 280.434 128.611 280.859 126.052C281.283 123.493 285.988 122.056 288.717 122.509Z" fill="#050402"/>
</g>
<g clip-path="url(#clip11_23_2979)">
<path d="M232.036 122.399C231.081 120.477 229.992 119.267 228.705 118.694C223.899 116.562 220.929 111.76 221.709 107.054C222.49 102.348 226.877 98.6041 232.116 98.1383C233.514 98.0103 234.938 97.2167 236.464 95.7064C238.324 93.8682 240.823 93.3008 242.989 94.2257C245.594 95.3378 247.509 98.7534 246.825 102.878C246.536 104.622 245.814 106.203 244.739 107.45C244.021 108.278 243.514 109.481 243.323 110.634C243.132 111.785 243.248 112.928 243.658 113.955C244.277 115.487 244.453 117.208 244.166 118.936C243.483 123.058 240.577 125.693 237.735 125.907C235.386 126.083 233.202 124.737 232.036 122.399Z" fill="#050402"/>
<path d="M223.691 95.1029C220.962 94.6503 216.973 91.7714 217.397 89.2121C217.822 86.6535 222.526 85.2157 225.256 85.6684C227.856 86.0997 229.622 88.5676 229.191 91.168C228.76 93.7684 226.292 95.5342 223.691 95.1029V95.1029Z" fill="#050402"/>
<path d="M211.895 122.391C212.319 119.832 217.024 118.394 219.753 118.847C222.354 119.278 224.12 121.746 223.688 124.347C223.257 126.947 220.789 128.713 218.189 128.282C215.459 127.829 211.47 124.95 211.895 122.391V122.391Z" fill="#050402"/>
<path d="M211.883 107.848C214.484 108.279 216.25 110.747 215.819 113.347C215.387 115.948 212.919 117.714 210.318 117.282C207.589 116.83 203.601 113.951 204.025 111.392C204.449 108.832 209.153 107.395 211.883 107.848Z" fill="#050402"/>
<path d="M218.191 99.0385C217.76 101.639 215.292 103.405 212.691 102.973C209.962 102.521 205.974 99.6413 206.398 97.0826C206.822 94.5234 211.527 93.0855 214.256 93.5382C216.857 93.9695 218.623 96.4374 218.191 99.0385Z" fill="#050402"/>
<path d="M185.496 153.619C184.541 151.698 183.295 150.461 182.008 149.888C177.202 147.756 174.415 142.823 175.196 138.116C175.976 133.411 180.18 129.798 185.419 129.332C186.818 129.205 188.399 128.437 189.925 126.927C191.785 125.088 194.283 124.521 196.45 125.446C199.055 126.558 200.969 129.974 200.285 134.098C199.996 135.842 199.275 137.424 198.199 138.67C197.482 139.498 197.001 140.544 196.81 141.697C196.619 142.848 196.709 144.148 197.118 145.175C197.737 146.707 197.914 148.429 197.627 150.157C196.944 154.278 194.037 156.914 191.196 157.127C188.847 157.303 186.663 155.957 185.496 153.619V153.619Z" fill="#050402"/>
<path d="M177.151 126.324C174.422 125.871 170.433 122.991 170.858 120.432C171.282 117.873 175.987 116.436 178.716 116.888C181.317 117.32 183.082 119.788 182.651 122.388C182.22 124.989 179.752 126.755 177.151 126.324Z" fill="#050402"/>
<path d="M165.355 153.611C165.78 151.052 170.484 149.614 173.214 150.067C175.814 150.498 177.58 152.966 177.149 155.567C176.717 158.168 174.25 159.933 171.649 159.502C168.92 159.05 164.931 156.17 165.355 153.611V153.611Z" fill="#050402"/>
<path d="M165.344 139.068C167.944 139.499 169.71 141.967 169.279 144.568C168.848 147.168 166.38 148.934 163.779 148.503C161.05 148.05 157.061 145.171 157.486 142.612C157.91 140.053 162.615 138.615 165.344 139.068V139.068Z" fill="#050402"/>
<path d="M167.717 124.759C170.318 125.19 172.083 127.658 171.652 130.259C171.221 132.859 168.753 134.625 166.152 134.194C163.423 133.741 159.434 130.861 159.859 128.303C160.283 125.743 164.988 124.306 167.717 124.759Z" fill="#050402"/>
</g>
<g clip-path="url(#clip12_23_2979)">
<path d="M111.036 124.649C110.081 122.728 108.992 121.517 107.705 120.944C102.899 118.812 99.9288 114.01 100.709 109.304C101.49 104.598 105.877 100.855 111.116 100.389C112.514 100.261 113.938 99.4672 115.464 97.9568C117.324 96.1186 119.823 95.5513 121.989 96.4762C124.594 97.5883 126.509 101.004 125.825 105.128C125.536 106.872 124.814 108.454 123.739 109.701C123.021 110.528 122.514 111.732 122.323 112.884C122.132 114.036 122.248 115.179 122.658 116.206C123.277 117.738 123.453 119.459 123.166 121.187C122.483 125.309 119.577 127.944 116.735 128.158C114.386 128.334 112.202 126.987 111.036 124.649Z" fill="#050402"/>
<path d="M102.691 97.3534C99.9618 96.9008 95.9729 94.0219 96.3974 91.4626C96.8217 88.904 101.526 87.4662 104.256 87.9189C106.856 88.3501 108.622 90.8181 108.191 93.4185C107.76 96.0189 105.292 97.7847 102.691 97.3534V97.3534Z" fill="#050402"/>
<path d="M90.8949 124.641C91.3193 122.083 96.024 120.645 98.7535 121.098C101.354 121.529 103.12 123.997 102.688 126.597C102.257 129.198 99.7892 130.963 97.1888 130.532C94.4594 130.079 90.4705 127.201 90.8949 124.641V124.641Z" fill="#050402"/>
<path d="M90.883 110.098C93.484 110.53 95.2498 112.997 94.8185 115.598C94.3873 118.198 91.9194 119.964 89.3183 119.533C86.5889 119.08 82.6006 116.201 83.0251 113.642C83.4495 111.083 88.1535 109.646 90.883 110.098Z" fill="#050402"/>
<path d="M97.1915 101.289C96.7602 103.889 94.2923 105.655 91.6913 105.224C88.9618 104.771 84.9737 101.892 85.398 99.3331C85.8224 96.7739 90.5265 95.336 93.256 95.7887C95.857 96.22 97.6228 98.6879 97.1915 101.289Z" fill="#050402"/>
<path d="M64.496 155.869C63.5411 153.948 62.2946 152.712 61.0077 152.138C56.2017 150.007 53.4154 145.073 54.1958 140.367C54.9762 135.661 59.1798 132.049 64.4191 131.583C65.818 131.455 67.3987 130.687 68.9251 129.177C70.7851 127.339 73.2834 126.772 75.4497 127.696C78.0546 128.808 79.9694 132.224 79.2855 136.348C78.9963 138.092 78.2749 139.674 77.1994 140.921C76.4819 141.748 76.0009 142.795 75.8098 143.947C75.6189 145.099 75.7088 146.399 76.1181 147.426C76.7372 148.958 76.9139 150.679 76.6273 152.407C75.9437 156.529 73.0374 159.164 70.1956 159.378C67.8467 159.554 65.6632 158.208 64.496 155.869V155.869Z" fill="#050402"/>
<path d="M56.1514 128.574C53.4219 128.121 49.4331 125.242 49.8576 122.683C50.2819 120.124 54.9866 118.686 57.7161 119.139C60.3165 119.57 62.0823 122.038 61.6511 124.638C61.2197 127.239 58.7518 129.005 56.1514 128.574Z" fill="#050402"/>
<path d="M44.3554 155.861C44.7797 153.303 49.4844 151.865 52.2139 152.318C54.8143 152.749 56.5801 155.217 56.1489 157.817C55.7175 160.418 53.2496 162.184 50.6492 161.753C47.9197 161.3 43.9309 158.421 44.3554 155.861V155.861Z" fill="#050402"/>
<path d="M44.344 141.319C46.9445 141.75 48.7102 144.218 48.279 146.818C47.8477 149.419 45.3798 151.184 42.7794 150.753C40.0499 150.3 36.0611 147.422 36.4855 144.862C36.9099 142.303 41.6146 140.866 44.344 141.319V141.319Z" fill="#050402"/>
<path d="M46.7171 127.009C49.3175 127.441 51.0833 129.909 50.652 132.509C50.2208 135.109 47.7529 136.875 45.1524 136.444C42.423 135.991 38.4342 133.112 38.8586 130.553C39.283 127.994 43.9876 126.557 46.7171 127.009Z" fill="#050402"/>
</g>
<g clip-path="url(#clip13_23_2979)">
<path d="M-9.96473 126.899C-10.9196 124.978 -12.0087 123.768 -13.2957 123.195C-18.1017 121.063 -21.0714 116.261 -20.2909 111.554C-19.5106 106.849 -15.1236 103.105 -9.88427 102.639C-8.48603 102.511 -7.06201 101.718 -5.53616 100.207C-3.67625 98.3691 -1.17729 97.8018 0.988348 98.7266C3.59393 99.8387 5.50874 103.254 4.82476 107.379C4.53556 109.123 3.81359 110.704 2.7387 111.951C2.02125 112.779 1.51412 113.982 1.32305 115.135C1.13208 116.286 1.2481 117.429 1.65738 118.456C2.27648 119.988 2.45255 121.709 2.166 123.437C1.48243 127.559 -1.42324 130.194 -4.26512 130.408C-6.61398 130.584 -8.79808 129.238 -9.96473 126.899Z" fill="#050402"/>
</g>
</g>
<defs>
<clipPath id="clip0_23_2979">
<rect width="81.6395" height="81.6395" fill="white" transform="matrix(-0.163607 0.986526 0.986526 0.163607 1378.49 53.7505)"/>
</clipPath>
<clipPath id="clip1_23_2979">
<rect width="81.6395" height="81.6395" fill="white" transform="matrix(-0.163607 0.986526 0.986526 0.163607 1378.49 53.7505)"/>
</clipPath>
<clipPath id="clip2_23_2979">
<rect width="81.6395" height="81.6395" fill="white" transform="matrix(-0.163607 0.986526 0.986526 0.163607 1257.49 56.001)"/>
</clipPath>
<clipPath id="clip3_23_2979">
<rect width="81.6395" height="81.6395" fill="white" transform="matrix(-0.163607 0.986526 0.986526 0.163607 1136.49 58.2512)"/>
</clipPath>
<clipPath id="clip4_23_2979">
<rect width="81.6395" height="81.6395" fill="white" transform="matrix(-0.163607 0.986526 0.986526 0.163607 1015.49 60.5015)"/>
</clipPath>
<clipPath id="clip5_23_2979">
<rect width="81.6395" height="81.6395" fill="white" transform="matrix(-0.163607 0.986526 0.986526 0.163607 894.491 62.752)"/>
</clipPath>
<clipPath id="clip6_23_2979">
<rect width="81.6395" height="81.6395" fill="white" transform="matrix(-0.163607 0.986526 0.986526 0.163607 773.491 65.0024)"/>
</clipPath>
<clipPath id="clip7_23_2979">
<rect width="81.6395" height="81.6395" fill="white" transform="matrix(-0.163607 0.986526 0.986526 0.163607 652.491 67.2527)"/>
</clipPath>
<clipPath id="clip8_23_2979">
<rect width="81.6395" height="81.6395" fill="white" transform="matrix(-0.163607 0.986526 0.986526 0.163607 531.49 69.5032)"/>
</clipPath>
<clipPath id="clip9_23_2979">
<rect width="81.6395" height="81.6395" fill="white" transform="matrix(-0.163607 0.986526 0.986526 0.163607 410.49 71.7534)"/>
</clipPath>
<clipPath id="clip10_23_2979">
<rect width="81.6395" height="81.6395" fill="white" transform="matrix(-0.163607 0.986526 0.986526 0.163607 289.49 74.0039)"/>
</clipPath>
<clipPath id="clip11_23_2979">
<rect width="81.6395" height="81.6395" fill="white" transform="matrix(-0.163607 0.986526 0.986526 0.163607 168.49 76.2542)"/>
</clipPath>
<clipPath id="clip12_23_2979">
<rect width="81.6395" height="81.6395" fill="white" transform="matrix(-0.163607 0.986526 0.986526 0.163607 47.4902 78.5046)"/>
</clipPath>
<clipPath id="clip13_23_2979">
<rect width="81.6395" height="81.6395" fill="white" transform="matrix(-0.163607 0.986526 0.986526 0.163607 -73.51 80.7551)"/>
</clipPath>
</defs>
</svg>
