<svg width="1440" height="1034" viewBox="0 0 1440 1034" fill="none" xmlns="http://www.w3.org/2000/svg">
<g opacity="0.05">
<g clip-path="url(#clip0_23_2813)">
<path d="M18.3795 809.489C19.422 807.613 20.5658 806.455 21.8778 805.941C26.777 804.033 29.9651 799.373 29.4025 794.636C28.84 789.9 24.6304 785.957 19.4181 785.25C18.0273 785.058 16.6414 784.2 15.1868 782.621C13.4137 780.698 10.9435 780.016 8.73753 780.84C6.08343 781.831 4.0131 785.155 4.50613 789.306C4.71459 791.062 5.36283 792.675 6.37907 793.97C7.05759 794.83 7.50865 796.056 7.64638 797.215C7.78403 798.375 7.61542 799.511 7.1592 800.518C6.47009 802.02 6.21482 803.731 6.42137 805.471C6.9141 809.62 9.69513 812.386 12.5241 812.73C14.8624 813.015 17.1062 811.77 18.3795 809.489Z" fill="#050402"/>
<path d="M27.974 782.607C30.7214 782.28 34.8388 779.589 34.5329 777.012C34.227 774.437 29.5936 772.784 26.8462 773.11C24.2286 773.421 22.3509 775.805 22.6618 778.422C22.9726 781.04 25.3565 782.918 27.974 782.607V782.607Z" fill="#050402"/>
<path d="M38.499 810.41C38.1931 807.834 33.5597 806.181 30.8123 806.508C28.1947 806.818 26.317 809.202 26.6278 811.82C26.9387 814.437 29.3225 816.315 31.9401 816.004C34.6875 815.678 38.8049 812.986 38.499 810.41V810.41Z" fill="#050402"/>
<path d="M39.1818 795.882C36.5636 796.193 34.6859 798.577 34.9967 801.195C35.3076 803.812 37.6914 805.69 40.3096 805.379C43.057 805.053 47.1738 802.361 46.8679 799.785C46.5619 797.209 41.9292 795.556 39.1818 795.882Z" fill="#050402"/>
<path d="M33.2864 786.792C33.5972 789.409 35.981 791.287 38.5992 790.976C41.3466 790.65 45.4633 787.957 45.1575 785.382C44.8515 782.806 40.2188 781.152 37.4713 781.479C34.8532 781.79 32.9754 784.173 33.2864 786.792Z" fill="#050402"/>
<path d="M63.4298 842.822C64.4722 840.947 65.7744 839.769 67.0865 839.256C71.9857 837.348 74.9966 832.549 74.434 827.811C73.8715 823.075 69.839 819.272 64.6267 818.565C63.2353 818.373 61.6916 817.533 60.2365 815.954C58.4633 814.032 55.9938 813.35 53.7872 814.174C51.1337 815.165 49.0634 818.488 49.5564 822.64C49.7649 824.395 50.4125 826.009 51.4294 827.304C52.1079 828.163 52.5401 829.231 52.6779 830.391C52.8155 831.55 52.6657 832.845 52.2095 833.852C51.5204 835.353 51.2645 837.065 51.471 838.804C51.9638 842.953 54.7454 845.719 57.5744 846.064C59.9126 846.348 62.1559 845.104 63.4298 842.822V842.822Z" fill="#050402"/>
<path d="M73.0241 815.941C75.7716 815.615 79.8889 812.922 79.5829 810.346C79.2771 807.77 74.6437 806.117 71.8962 806.444C69.2787 806.754 67.401 809.138 67.7118 811.756C68.0227 814.374 70.4066 816.252 73.0241 815.941Z" fill="#050402"/>
<path d="M83.5493 843.743C83.2434 841.167 78.61 839.514 75.8625 839.841C73.245 840.151 71.3673 842.535 71.6781 845.153C71.989 847.771 74.3729 849.649 76.9904 849.338C79.7379 849.012 83.8552 846.319 83.5493 843.743V843.743Z" fill="#050402"/>
<path d="M84.2312 829.217C81.6136 829.527 79.7359 831.911 80.0468 834.529C80.3576 837.146 82.7415 839.024 85.359 838.713C88.1064 838.387 92.2238 835.695 91.9179 833.119C91.612 830.543 86.9786 828.89 84.2312 829.217V829.217Z" fill="#050402"/>
<path d="M82.5207 814.813C79.9032 815.124 78.0255 817.508 78.3363 820.125C78.6472 822.743 81.031 824.621 83.6486 824.31C86.396 823.984 90.5133 821.291 90.2075 818.716C89.9015 816.14 85.2682 814.487 82.5207 814.813Z" fill="#050402"/>
</g>
<g clip-path="url(#clip1_23_2813)">
<path d="M18.3795 809.489C19.422 807.613 20.5658 806.455 21.8778 805.941C26.777 804.033 29.9651 799.373 29.4025 794.636C28.84 789.9 24.6304 785.957 19.4181 785.25C18.0273 785.058 16.6414 784.2 15.1868 782.621C13.4137 780.698 10.9435 780.016 8.73753 780.84C6.08343 781.831 4.0131 785.155 4.50613 789.306C4.71459 791.062 5.36283 792.675 6.37907 793.97C7.05759 794.83 7.50865 796.056 7.64638 797.215C7.78403 798.375 7.61542 799.511 7.1592 800.518C6.47009 802.02 6.21482 803.731 6.42137 805.471C6.9141 809.62 9.69513 812.386 12.5241 812.73C14.8624 813.015 17.1062 811.77 18.3795 809.489Z" fill="#050402"/>
<path d="M27.974 782.607C30.7214 782.28 34.8388 779.589 34.5329 777.012C34.227 774.437 29.5936 772.784 26.8462 773.11C24.2286 773.421 22.3509 775.805 22.6618 778.422C22.9726 781.04 25.3565 782.918 27.974 782.607V782.607Z" fill="#050402"/>
<path d="M38.499 810.41C38.1931 807.834 33.5597 806.181 30.8123 806.508C28.1947 806.818 26.317 809.202 26.6278 811.82C26.9387 814.437 29.3225 816.315 31.9401 816.004C34.6875 815.678 38.8049 812.986 38.499 810.41V810.41Z" fill="#050402"/>
<path d="M39.1818 795.882C36.5636 796.193 34.6859 798.577 34.9967 801.195C35.3076 803.812 37.6914 805.69 40.3096 805.379C43.057 805.053 47.1738 802.361 46.8679 799.785C46.5619 797.209 41.9292 795.556 39.1818 795.882Z" fill="#050402"/>
<path d="M33.2864 786.792C33.5972 789.409 35.981 791.287 38.5992 790.976C41.3466 790.65 45.4633 787.957 45.1575 785.382C44.8515 782.806 40.2188 781.152 37.4713 781.479C34.8532 781.79 32.9754 784.173 33.2864 786.792Z" fill="#050402"/>
<path d="M63.4298 842.822C64.4722 840.947 65.7744 839.769 67.0865 839.256C71.9857 837.348 74.9966 832.549 74.434 827.811C73.8715 823.075 69.839 819.272 64.6267 818.565C63.2353 818.373 61.6916 817.533 60.2365 815.954C58.4633 814.032 55.9938 813.35 53.7872 814.174C51.1337 815.165 49.0634 818.488 49.5564 822.64C49.7649 824.395 50.4125 826.009 51.4294 827.304C52.1079 828.163 52.5401 829.231 52.6779 830.391C52.8155 831.55 52.6657 832.845 52.2095 833.852C51.5204 835.353 51.2645 837.065 51.471 838.804C51.9638 842.953 54.7454 845.719 57.5744 846.064C59.9126 846.348 62.1559 845.104 63.4298 842.822V842.822Z" fill="#050402"/>
<path d="M73.0241 815.941C75.7716 815.615 79.8889 812.922 79.5829 810.346C79.2771 807.77 74.6437 806.117 71.8962 806.444C69.2787 806.754 67.401 809.138 67.7118 811.756C68.0227 814.374 70.4066 816.252 73.0241 815.941Z" fill="#050402"/>
<path d="M83.5493 843.743C83.2434 841.167 78.61 839.514 75.8625 839.841C73.245 840.151 71.3673 842.535 71.6781 845.153C71.989 847.771 74.3729 849.649 76.9904 849.338C79.7379 849.012 83.8552 846.319 83.5493 843.743V843.743Z" fill="#050402"/>
<path d="M84.2312 829.217C81.6136 829.527 79.7359 831.911 80.0468 834.529C80.3576 837.146 82.7415 839.024 85.359 838.713C88.1064 838.387 92.2238 835.695 91.9179 833.119C91.612 830.543 86.9786 828.89 84.2312 829.217V829.217Z" fill="#050402"/>
<path d="M82.5207 814.813C79.9032 815.124 78.0255 817.508 78.3363 820.125C78.6472 822.743 81.031 824.621 83.6486 824.31C86.396 823.984 90.5133 821.291 90.2075 818.716C89.9015 816.14 85.2682 814.487 82.5207 814.813Z" fill="#050402"/>
</g>
<g clip-path="url(#clip2_23_2813)">
<path d="M139.147 817.318C140.19 815.443 141.333 814.284 142.645 813.771C147.545 811.863 150.733 807.203 150.17 802.466C149.608 797.729 145.398 793.787 140.186 793.08C138.795 792.888 137.409 792.029 135.954 790.45C134.181 788.528 131.711 787.846 129.505 788.67C126.851 789.661 124.781 792.985 125.274 797.136C125.482 798.891 126.13 800.505 127.147 801.8C127.825 802.659 128.276 803.885 128.414 805.045C128.552 806.204 128.383 807.341 127.927 808.348C127.238 809.85 126.982 811.561 127.189 813.3C127.682 817.449 130.463 820.216 133.292 820.56C135.63 820.844 137.874 819.6 139.147 817.318Z" fill="#050402"/>
<path d="M148.742 790.436C151.489 790.11 155.606 787.418 155.3 784.842C154.995 782.267 150.361 780.613 147.614 780.94C144.996 781.251 143.118 783.634 143.429 786.252C143.74 788.869 146.124 790.747 148.742 790.436V790.436Z" fill="#050402"/>
<path d="M159.267 818.24C158.961 815.664 154.327 814.011 151.58 814.337C148.962 814.648 147.085 817.032 147.395 819.649C147.706 822.267 150.09 824.145 152.708 823.834C155.455 823.507 159.572 820.816 159.267 818.24V818.24Z" fill="#050402"/>
<path d="M159.949 803.712C157.331 804.023 155.453 806.407 155.764 809.024C156.075 811.642 158.459 813.52 161.077 813.209C163.825 812.882 167.941 810.191 167.635 807.615C167.33 805.038 162.697 803.386 159.949 803.712Z" fill="#050402"/>
<path d="M154.054 794.621C154.365 797.239 156.749 799.116 159.367 798.806C162.114 798.479 166.231 795.787 165.925 793.211C165.619 790.635 160.986 788.982 158.239 789.308C155.621 789.619 153.743 792.003 154.054 794.621Z" fill="#050402"/>
<path d="M184.197 850.652C185.24 848.777 186.542 847.599 187.854 847.086C192.753 845.178 195.764 840.378 195.202 835.641C194.639 830.904 190.607 827.102 185.394 826.395C184.003 826.202 182.459 825.363 181.004 823.784C179.231 821.862 176.761 821.18 174.555 822.004C171.901 822.994 169.831 826.318 170.324 830.469C170.532 832.225 171.18 833.838 172.197 835.133C172.875 835.993 173.308 837.061 173.445 838.22C173.583 839.379 173.433 840.674 172.977 841.681C172.288 843.183 172.032 844.894 172.239 846.634C172.731 850.783 175.513 853.549 178.342 853.894C180.68 854.178 182.923 852.934 184.197 850.652V850.652Z" fill="#050402"/>
<path d="M193.792 823.77C196.539 823.444 200.656 820.752 200.351 818.176C200.045 815.6 195.411 813.947 192.664 814.273C190.046 814.584 188.169 816.968 188.479 819.585C188.79 822.204 191.174 824.081 193.792 823.77Z" fill="#050402"/>
<path d="M204.317 851.573C204.011 848.997 199.378 847.344 196.63 847.67C194.013 847.981 192.135 850.365 192.446 852.982C192.757 855.601 195.14 857.478 197.758 857.167C200.505 856.841 204.623 854.149 204.317 851.573V851.573Z" fill="#050402"/>
<path d="M204.999 837.046C202.381 837.357 200.503 839.741 200.814 842.358C201.125 844.976 203.509 846.854 206.127 846.543C208.874 846.216 212.991 843.525 212.685 840.949C212.38 838.372 207.746 836.72 204.999 837.046V837.046Z" fill="#050402"/>
<path d="M203.288 822.643C200.671 822.954 198.793 825.337 199.104 827.955C199.415 830.573 201.799 832.45 204.416 832.139C207.164 831.813 211.281 829.121 210.975 826.545C210.669 823.969 206.036 822.316 203.288 822.643Z" fill="#050402"/>
</g>
<g clip-path="url(#clip3_23_2813)">
<path d="M259.914 825.147C260.957 823.272 262.101 822.113 263.413 821.599C268.312 819.692 271.5 815.032 270.937 810.294C270.375 805.558 266.165 801.616 260.953 800.909C259.562 800.716 258.176 799.858 256.722 798.279C254.949 796.357 252.478 795.675 250.272 796.499C247.618 797.489 245.548 800.813 246.041 804.965C246.25 806.72 246.898 808.333 247.914 809.628C248.593 810.488 249.044 811.714 249.181 812.874C249.319 814.033 249.15 815.169 248.694 816.176C248.005 817.678 247.75 819.389 247.956 821.129C248.449 825.278 251.23 828.044 254.059 828.389C256.397 828.673 258.641 827.429 259.914 825.147Z" fill="#050402"/>
<path d="M269.509 798.265C272.256 797.939 276.374 795.247 276.068 792.671C275.762 790.095 271.129 788.442 268.381 788.768C265.764 789.079 263.886 791.463 264.197 794.08C264.508 796.698 266.891 798.576 269.509 798.265V798.265Z" fill="#050402"/>
<path d="M280.034 826.068C279.728 823.493 275.095 821.839 272.347 822.166C269.73 822.477 267.852 824.86 268.163 827.478C268.474 830.096 270.857 831.973 273.475 831.662C276.222 831.336 280.34 828.644 280.034 826.068V826.068Z" fill="#050402"/>
<path d="M280.717 811.541C278.099 811.852 276.221 814.235 276.532 816.853C276.843 819.471 279.226 821.348 281.844 821.037C284.592 820.711 288.709 818.019 288.403 815.443C288.097 812.867 283.464 811.214 280.717 811.541Z" fill="#050402"/>
<path d="M274.821 802.45C275.132 805.067 277.516 806.945 280.134 806.634C282.882 806.308 286.998 803.615 286.692 801.04C286.386 798.464 281.754 796.811 279.006 797.137C276.388 797.448 274.51 799.832 274.821 802.45Z" fill="#050402"/>
<path d="M304.965 858.48C306.007 856.605 307.309 855.428 308.621 854.914C313.521 853.006 316.531 848.207 315.969 843.47C315.406 838.733 311.374 834.93 306.162 834.223C304.77 834.031 303.227 833.191 301.771 831.612C299.998 829.69 297.529 829.008 295.322 829.832C292.669 830.823 290.598 834.147 291.091 838.298C291.3 840.053 291.947 841.667 292.964 842.962C293.643 843.821 294.075 844.889 294.213 846.049C294.35 847.208 294.201 848.503 293.744 849.51C293.055 851.012 292.799 852.723 293.006 854.462C293.499 858.611 296.28 861.378 299.109 861.722C301.448 862.007 303.691 860.762 304.965 858.48V858.48Z" fill="#050402"/>
<path d="M314.559 831.599C317.306 831.273 321.424 828.58 321.118 826.004C320.812 823.429 316.179 821.775 313.431 822.102C310.814 822.413 308.936 824.796 309.247 827.414C309.558 830.032 311.941 831.91 314.559 831.599Z" fill="#050402"/>
<path d="M325.084 859.401C324.778 856.826 320.145 855.172 317.397 855.499C314.78 855.81 312.902 858.193 313.213 860.811C313.524 863.429 315.908 865.307 318.525 864.996C321.273 864.67 325.39 861.977 325.084 859.401V859.401Z" fill="#050402"/>
<path d="M325.766 844.875C323.149 845.186 321.271 847.569 321.582 850.187C321.893 852.804 324.276 854.682 326.894 854.371C329.641 854.045 333.759 851.353 333.453 848.777C333.147 846.201 328.514 844.548 325.766 844.875V844.875Z" fill="#050402"/>
<path d="M324.056 830.471C321.438 830.782 319.56 833.166 319.871 835.784C320.182 838.401 322.566 840.279 325.183 839.968C327.931 839.642 332.048 836.949 331.742 834.374C331.436 831.798 326.803 830.145 324.056 830.471Z" fill="#050402"/>
</g>
<g clip-path="url(#clip4_23_2813)">
<path d="M380.682 832.976C381.724 831.101 382.868 829.942 384.18 829.429C389.08 827.521 392.268 822.861 391.705 818.123C391.142 813.387 386.933 809.445 381.721 808.738C380.33 808.545 378.944 807.687 377.489 806.108C375.716 804.186 373.246 803.504 371.04 804.328C368.386 805.319 366.316 808.642 366.809 812.794C367.017 814.549 367.665 816.162 368.682 817.457C369.36 818.317 369.811 819.543 369.949 820.703C370.087 821.862 369.918 822.998 369.462 824.005C368.773 825.507 368.517 827.219 368.724 828.958C369.217 833.107 371.998 835.873 374.827 836.218C377.165 836.502 379.409 835.258 380.682 832.976Z" fill="#050402"/>
<path d="M390.276 806.094C393.024 805.768 397.141 803.076 396.835 800.5C396.53 797.924 391.896 796.271 389.149 796.597C386.531 796.908 384.653 799.292 384.964 801.91C385.275 804.527 387.659 806.405 390.276 806.094V806.094Z" fill="#050402"/>
<path d="M400.801 833.897C400.496 831.322 395.862 829.669 393.115 829.995C390.497 830.306 388.619 832.69 388.93 835.307C389.241 837.925 391.625 839.802 394.243 839.491C396.99 839.165 401.107 836.473 400.801 833.897V833.897Z" fill="#050402"/>
<path d="M401.484 819.37C398.866 819.681 396.988 822.065 397.299 824.682C397.61 827.3 399.994 829.177 402.612 828.866C405.36 828.54 409.476 825.848 409.17 823.272C408.864 820.696 404.232 819.043 401.484 819.37Z" fill="#050402"/>
<path d="M395.589 810.279C395.9 812.896 398.284 814.774 400.902 814.463C403.649 814.137 407.766 811.445 407.46 808.869C407.154 806.293 402.521 804.64 399.774 804.966C397.156 805.277 395.278 807.661 395.589 810.279Z" fill="#050402"/>
<path d="M425.732 866.309C426.775 864.434 428.077 863.257 429.389 862.743C434.288 860.835 437.299 856.036 436.736 851.299C436.174 846.562 432.141 842.759 426.929 842.052C425.538 841.86 423.994 841.02 422.539 839.441C420.766 837.519 418.296 836.837 416.09 837.661C413.436 838.652 411.366 841.976 411.859 846.127C412.067 847.883 412.715 849.496 413.732 850.791C414.41 851.651 414.843 852.718 414.98 853.878C415.118 855.037 414.968 856.332 414.512 857.339C413.823 858.841 413.567 860.552 413.774 862.291C414.266 866.44 417.048 869.207 419.877 869.551C422.215 869.836 424.458 868.591 425.732 866.309V866.309Z" fill="#050402"/>
<path d="M435.327 839.428C438.074 839.102 442.191 836.409 441.885 833.833C441.58 831.258 436.946 829.605 434.199 829.931C431.581 830.242 429.703 832.626 430.014 835.243C430.325 837.861 432.709 839.739 435.327 839.428Z" fill="#050402"/>
<path d="M445.852 867.23C445.546 864.655 440.912 863.002 438.165 863.328C435.547 863.639 433.67 866.023 433.981 868.64C434.292 871.258 436.675 873.136 439.293 872.825C442.04 872.499 446.158 869.806 445.852 867.23V867.23Z" fill="#050402"/>
<path d="M446.534 852.704C443.916 853.015 442.038 855.398 442.349 858.016C442.66 860.634 445.044 862.511 447.662 862.2C450.409 861.874 454.526 859.182 454.22 856.606C453.914 854.03 449.281 852.378 446.534 852.704V852.704Z" fill="#050402"/>
<path d="M444.823 838.3C442.206 838.611 440.328 840.995 440.639 843.613C440.95 846.23 443.334 848.108 445.951 847.797C448.698 847.471 452.816 844.778 452.51 842.203C452.204 839.627 447.571 837.974 444.823 838.3Z" fill="#050402"/>
</g>
<g clip-path="url(#clip5_23_2813)">
<path d="M501.45 840.804C502.492 838.929 503.636 837.771 504.948 837.257C509.847 835.349 513.035 830.689 512.473 825.952C511.91 821.215 507.7 817.273 502.488 816.566C501.097 816.374 499.711 815.516 498.257 813.936C496.484 812.014 494.014 811.332 491.808 812.156C489.153 813.147 487.083 816.471 487.576 820.622C487.785 822.378 488.433 823.991 489.449 825.286C490.128 826.146 490.579 827.372 490.716 828.531C490.854 829.691 490.685 830.827 490.229 831.834C489.54 833.336 489.285 835.047 489.491 836.786C489.984 840.935 492.765 843.702 495.594 844.046C497.932 844.331 500.176 843.086 501.45 840.804Z" fill="#050402"/>
<path d="M511.044 813.923C513.792 813.596 517.909 810.905 517.603 808.328C517.297 805.753 512.664 804.1 509.916 804.426C507.299 804.737 505.421 807.121 505.732 809.738C506.043 812.356 508.427 814.233 511.044 813.923V813.923Z" fill="#050402"/>
<path d="M521.569 841.726C521.263 839.15 516.63 837.497 513.882 837.823C511.265 838.134 509.387 840.518 509.698 843.136C510.009 845.753 512.393 847.631 515.01 847.32C517.758 846.994 521.875 844.302 521.569 841.726V841.726Z" fill="#050402"/>
<path d="M522.252 827.198C519.634 827.509 517.756 829.893 518.067 832.511C518.378 835.128 520.761 837.006 523.38 836.695C526.127 836.369 530.244 833.677 529.938 831.101C529.632 828.525 524.999 826.872 522.252 827.198Z" fill="#050402"/>
<path d="M516.356 818.107C516.667 820.725 519.051 822.603 521.669 822.292C524.417 821.966 528.533 819.273 528.228 816.698C527.922 814.122 523.289 812.468 520.541 812.795C517.923 813.105 516.045 815.489 516.356 818.107Z" fill="#050402"/>
<path d="M546.5 874.138C547.542 872.263 548.844 871.085 550.157 870.572C555.056 868.664 558.067 863.864 557.504 859.127C556.942 854.391 552.909 850.588 547.697 849.881C546.305 849.689 544.762 848.849 543.307 847.27C541.533 845.348 539.064 844.666 536.857 845.49C534.204 846.481 532.133 849.804 532.626 853.956C532.835 855.711 533.483 857.325 534.499 858.62C535.178 859.479 535.61 860.547 535.748 861.707C535.886 862.866 535.736 864.161 535.28 865.167C534.59 866.669 534.335 868.381 534.541 870.12C535.034 874.269 537.815 877.035 540.644 877.38C542.983 877.664 545.226 876.42 546.5 874.138V874.138Z" fill="#050402"/>
<path d="M556.094 847.257C558.842 846.93 562.959 844.238 562.653 841.662C562.347 839.086 557.714 837.433 554.966 837.759C552.349 838.07 550.471 840.454 550.782 843.072C551.093 845.69 553.477 847.568 556.094 847.257Z" fill="#050402"/>
<path d="M566.619 875.059C566.313 872.483 561.68 870.83 558.933 871.156C556.315 871.467 554.437 873.851 554.748 876.469C555.059 879.087 557.443 880.965 560.06 880.654C562.808 880.327 566.925 877.635 566.619 875.059V875.059Z" fill="#050402"/>
<path d="M567.301 860.532C564.684 860.843 562.806 863.227 563.117 865.845C563.428 868.462 565.812 870.34 568.429 870.029C571.177 869.703 575.294 867.011 574.988 864.435C574.682 861.859 570.049 860.206 567.301 860.532V860.532Z" fill="#050402"/>
<path d="M565.591 846.129C562.973 846.44 561.096 848.824 561.406 851.441C561.717 854.059 564.101 855.937 566.719 855.626C569.466 855.299 573.583 852.607 573.278 850.032C572.972 847.455 568.338 845.803 565.591 846.129Z" fill="#050402"/>
</g>
<g clip-path="url(#clip6_23_2813)">
<path d="M622.217 848.634C623.26 846.759 624.403 845.6 625.715 845.086C630.615 843.178 633.803 838.518 633.24 833.781C632.678 829.045 628.468 825.102 623.256 824.395C621.865 824.203 620.479 823.345 619.024 821.766C617.251 819.844 614.781 819.162 612.575 819.985C609.921 820.976 607.851 824.3 608.344 828.451C608.552 830.207 609.2 831.82 610.217 833.115C610.895 833.975 611.346 835.201 611.484 836.361C611.622 837.52 611.453 838.656 610.997 839.663C610.308 841.165 610.052 842.876 610.259 844.616C610.752 848.765 613.533 851.531 616.362 851.876C618.7 852.16 620.944 850.915 622.217 848.634Z" fill="#050402"/>
<path d="M631.812 821.752C634.559 821.425 638.676 818.734 638.371 816.158C638.065 813.582 633.431 811.929 630.684 812.255C628.066 812.566 626.189 814.95 626.499 817.567C626.81 820.185 629.194 822.063 631.812 821.752V821.752Z" fill="#050402"/>
<path d="M642.337 849.555C642.031 846.979 637.397 845.326 634.65 845.653C632.032 845.963 630.155 848.347 630.465 850.965C630.776 853.582 633.16 855.46 635.778 855.149C638.525 854.823 642.643 852.131 642.337 849.555V849.555Z" fill="#050402"/>
<path d="M643.019 835.027C640.401 835.338 638.524 837.722 638.834 840.34C639.145 842.957 641.529 844.835 644.147 844.524C646.895 844.198 651.011 841.506 650.706 838.93C650.4 836.354 645.767 834.701 643.019 835.027Z" fill="#050402"/>
<path d="M637.124 825.937C637.435 828.554 639.819 830.432 642.437 830.121C645.184 829.795 649.301 827.102 648.995 824.527C648.689 821.951 644.056 820.297 641.309 820.624C638.691 820.935 636.813 823.318 637.124 825.937Z" fill="#050402"/>
<path d="M667.267 881.967C668.31 880.092 669.612 878.914 670.924 878.401C675.823 876.493 678.834 871.694 678.272 866.956C677.709 862.22 673.677 858.417 668.464 857.71C667.073 857.518 665.529 856.678 664.074 855.099C662.301 853.177 659.831 852.495 657.625 853.319C654.971 854.31 652.901 857.633 653.394 861.785C653.603 863.54 654.25 865.154 655.267 866.449C655.946 867.308 656.378 868.376 656.516 869.536C656.653 870.695 656.503 871.99 656.047 872.997C655.358 874.498 655.102 876.21 655.309 877.949C655.801 882.098 658.583 884.864 661.412 885.209C663.75 885.493 665.994 884.249 667.267 881.967V881.967Z" fill="#050402"/>
<path d="M676.862 855.086C679.609 854.76 683.727 852.067 683.421 849.491C683.115 846.916 678.481 845.262 675.734 845.589C673.116 845.899 671.239 848.283 671.549 850.901C671.86 853.519 674.244 855.397 676.862 855.086Z" fill="#050402"/>
<path d="M687.387 882.888C687.081 880.312 682.448 878.659 679.7 878.986C677.083 879.296 675.205 881.68 675.516 884.298C675.827 886.916 678.211 888.794 680.828 888.483C683.576 888.157 687.693 885.464 687.387 882.888V882.888Z" fill="#050402"/>
<path d="M688.069 868.362C685.451 868.672 683.574 871.056 683.884 873.674C684.195 876.291 686.579 878.169 689.197 877.858C691.944 877.532 696.061 874.84 695.756 872.264C695.45 869.688 690.816 868.035 688.069 868.362V868.362Z" fill="#050402"/>
<path d="M686.358 853.958C683.741 854.269 681.863 856.653 682.174 859.27C682.485 861.888 684.869 863.766 687.486 863.455C690.234 863.129 694.351 860.436 694.045 857.861C693.739 855.285 689.106 853.632 686.358 853.958Z" fill="#050402"/>
</g>
<g clip-path="url(#clip7_23_2813)">
<path d="M742.984 856.463C744.027 854.588 745.171 853.429 746.483 852.915C751.382 851.008 754.57 846.347 754.007 841.61C753.445 836.874 749.235 832.932 744.023 832.225C742.632 832.032 741.246 831.174 739.792 829.595C738.019 827.673 735.548 826.991 733.343 827.815C730.688 828.805 728.618 832.129 729.111 836.281C729.32 838.036 729.968 839.649 730.984 840.944C731.663 841.804 732.114 843.03 732.251 844.19C732.389 845.349 732.22 846.485 731.764 847.492C731.075 848.994 730.82 850.705 731.026 852.445C731.519 856.594 734.3 859.36 737.129 859.705C739.467 859.989 741.711 858.745 742.984 856.463Z" fill="#050402"/>
<path d="M752.579 829.581C755.326 829.255 759.444 826.563 759.138 823.987C758.832 821.411 754.199 819.758 751.451 820.084C748.834 820.395 746.956 822.779 747.267 825.396C747.578 828.014 749.961 829.892 752.579 829.581V829.581Z" fill="#050402"/>
<path d="M763.104 857.384C762.798 854.809 758.165 853.155 755.417 853.482C752.8 853.792 750.922 856.176 751.233 858.794C751.544 861.411 753.927 863.289 756.545 862.978C759.292 862.652 763.41 859.96 763.104 857.384V857.384Z" fill="#050402"/>
<path d="M763.787 842.857C761.169 843.167 759.291 845.551 759.602 848.169C759.913 850.786 762.296 852.664 764.915 852.353C767.662 852.027 771.779 849.335 771.473 846.759C771.167 844.183 766.534 842.53 763.787 842.857Z" fill="#050402"/>
<path d="M757.891 833.766C758.202 836.383 760.586 838.261 763.204 837.95C765.952 837.624 770.068 834.931 769.762 832.356C769.457 829.78 764.824 828.126 762.076 828.453C759.458 828.764 757.58 831.148 757.891 833.766Z" fill="#050402"/>
<path d="M788.035 889.796C789.077 887.921 790.379 886.743 791.691 886.23C796.591 884.322 799.602 879.523 799.039 874.785C798.476 870.049 794.444 866.246 789.232 865.539C787.84 865.347 786.297 864.507 784.841 862.928C783.068 861.006 780.599 860.324 778.392 861.148C775.739 862.139 773.668 865.463 774.161 869.614C774.37 871.369 775.017 872.983 776.034 874.278C776.713 875.137 777.145 876.205 777.283 877.365C777.42 878.524 777.271 879.819 776.814 880.826C776.125 882.328 775.869 884.039 776.076 885.778C776.569 889.927 779.35 892.694 782.179 893.038C784.518 893.322 786.761 892.078 788.035 889.796V889.796Z" fill="#050402"/>
<path d="M797.629 862.915C800.377 862.589 804.494 859.896 804.188 857.32C803.882 854.745 799.249 853.091 796.501 853.418C793.884 853.729 792.006 856.112 792.317 858.73C792.628 861.348 795.012 863.226 797.629 862.915Z" fill="#050402"/>
<path d="M808.154 890.717C807.848 888.142 803.215 886.488 800.468 886.815C797.85 887.126 795.972 889.509 796.283 892.127C796.594 894.745 798.978 896.623 801.595 896.312C804.343 895.986 808.46 893.293 808.154 890.717V890.717Z" fill="#050402"/>
<path d="M808.836 876.191C806.219 876.501 804.341 878.885 804.652 881.503C804.963 884.12 807.346 885.998 809.964 885.687C812.711 885.361 816.829 882.669 816.523 880.093C816.217 877.517 811.584 875.864 808.836 876.191V876.191Z" fill="#050402"/>
<path d="M807.126 861.787C804.508 862.098 802.63 864.482 802.941 867.1C803.252 869.717 805.636 871.595 808.254 871.284C811.001 870.958 815.118 868.265 814.812 865.69C814.507 863.114 809.873 861.461 807.126 861.787Z" fill="#050402"/>
</g>
<g clip-path="url(#clip8_23_2813)">
<path d="M863.752 864.292C864.795 862.417 865.938 861.258 867.25 860.745C872.15 858.837 875.338 854.177 874.775 849.439C874.213 844.703 870.003 840.761 864.791 840.054C863.4 839.861 862.014 839.003 860.559 837.424C858.786 835.502 856.316 834.82 854.11 835.644C851.456 836.634 849.386 839.958 849.879 844.11C850.087 845.865 850.735 847.478 851.752 848.773C852.43 849.633 852.881 850.859 853.019 852.019C853.157 853.178 852.988 854.314 852.532 855.321C851.843 856.823 851.587 858.534 851.794 860.274C852.287 864.423 855.068 867.189 857.897 867.534C860.235 867.818 862.479 866.574 863.752 864.292Z" fill="#050402"/>
<path d="M873.347 837.41C876.094 837.084 880.211 834.392 879.905 831.816C879.6 829.24 874.966 827.587 872.219 827.913C869.601 828.224 867.723 830.608 868.034 833.226C868.345 835.843 870.729 837.721 873.347 837.41V837.41Z" fill="#050402"/>
<path d="M883.872 865.213C883.566 862.638 878.932 860.984 876.185 861.311C873.567 861.622 871.69 864.005 872 866.623C872.311 869.241 874.695 871.118 877.313 870.807C880.06 870.481 884.177 867.789 883.872 865.213V865.213Z" fill="#050402"/>
<path d="M884.554 850.686C881.936 850.997 880.058 853.38 880.369 855.998C880.68 858.616 883.064 860.493 885.682 860.182C888.43 859.856 892.546 857.164 892.24 854.588C891.934 852.012 887.302 850.359 884.554 850.686Z" fill="#050402"/>
<path d="M878.659 841.595C878.97 844.212 881.354 846.09 883.972 845.779C886.719 845.453 890.836 842.76 890.53 840.185C890.224 837.609 885.591 835.956 882.844 836.282C880.226 836.593 878.348 838.977 878.659 841.595Z" fill="#050402"/>
<path d="M908.802 897.625C909.845 895.75 911.147 894.573 912.459 894.059C917.358 892.151 920.369 887.352 919.807 882.615C919.244 877.878 915.212 874.075 909.999 873.368C908.608 873.176 907.064 872.336 905.609 870.757C903.836 868.835 901.366 868.153 899.16 868.977C896.506 869.968 894.436 873.292 894.929 877.443C895.137 879.198 895.785 880.812 896.802 882.107C897.48 882.967 897.913 884.034 898.05 885.194C898.188 886.353 898.038 887.648 897.582 888.655C896.893 890.157 896.637 891.868 896.844 893.607C897.336 897.756 900.118 900.523 902.947 900.867C905.285 901.152 907.528 899.907 908.802 897.625V897.625Z" fill="#050402"/>
<path d="M918.397 870.744C921.144 870.418 925.261 867.725 924.956 865.149C924.65 862.574 920.016 860.92 917.269 861.247C914.651 861.558 912.774 863.941 913.084 866.559C913.395 869.177 915.779 871.055 918.397 870.744Z" fill="#050402"/>
<path d="M928.922 898.546C928.616 895.971 923.983 894.317 921.235 894.644C918.618 894.955 916.74 897.338 917.051 899.956C917.362 902.574 919.745 904.452 922.363 904.141C925.11 903.815 929.228 901.122 928.922 898.546V898.546Z" fill="#050402"/>
<path d="M929.604 884.02C926.986 884.331 925.108 886.714 925.419 889.332C925.73 891.95 928.114 893.827 930.732 893.516C933.479 893.19 937.596 890.498 937.29 887.922C936.985 885.346 932.351 883.693 929.604 884.02V884.02Z" fill="#050402"/>
<path d="M927.893 869.616C925.276 869.927 923.398 872.311 923.709 874.929C924.02 877.546 926.404 879.424 929.021 879.113C931.769 878.787 935.886 876.094 935.58 873.519C935.274 870.943 930.641 869.29 927.893 869.616Z" fill="#050402"/>
</g>
<g clip-path="url(#clip9_23_2813)">
<path d="M984.52 872.121C985.562 870.246 986.706 869.087 988.018 868.574C992.917 866.666 996.105 862.006 995.543 857.268C994.98 852.532 990.771 848.59 985.558 847.883C984.168 847.69 982.782 846.832 981.327 845.253C979.554 843.331 977.084 842.649 974.878 843.473C972.224 844.464 970.153 847.787 970.647 851.939C970.855 853.694 971.503 855.307 972.519 856.602C973.198 857.462 973.649 858.688 973.787 859.848C973.924 861.007 973.756 862.143 973.3 863.15C972.61 864.652 972.355 866.364 972.562 868.103C973.054 872.252 975.836 875.018 978.665 875.363C981.003 875.647 983.247 874.403 984.52 872.121Z" fill="#050402"/>
<path d="M994.114 845.239C996.862 844.913 1000.98 842.221 1000.67 839.645C1000.37 837.069 995.734 835.416 992.987 835.742C990.369 836.053 988.491 838.437 988.802 841.055C989.113 843.672 991.497 845.55 994.114 845.239V845.239Z" fill="#050402"/>
<path d="M1004.64 873.042C1004.33 870.467 999.7 868.814 996.953 869.14C994.335 869.451 992.457 871.835 992.768 874.452C993.079 877.07 995.463 878.947 998.08 878.637C1000.83 878.31 1004.95 875.618 1004.64 873.042V873.042Z" fill="#050402"/>
<path d="M1005.32 858.515C1002.7 858.826 1000.83 861.21 1001.14 863.827C1001.45 866.445 1003.83 868.322 1006.45 868.011C1009.2 867.685 1013.31 864.993 1013.01 862.417C1012.7 859.841 1008.07 858.188 1005.32 858.515Z" fill="#050402"/>
<path d="M999.427 849.424C999.738 852.041 1002.12 853.919 1004.74 853.608C1007.49 853.282 1011.6 850.59 1011.3 848.014C1010.99 845.438 1006.36 843.785 1003.61 844.111C1000.99 844.422 999.116 846.806 999.427 849.424Z" fill="#050402"/>
<path d="M1029.57 905.454C1030.61 903.579 1031.91 902.402 1033.23 901.888C1038.13 899.98 1041.14 895.181 1040.57 890.444C1040.01 885.707 1035.98 881.904 1030.77 881.197C1029.38 881.005 1027.83 880.165 1026.38 878.586C1024.6 876.664 1022.13 875.982 1019.93 876.806C1017.27 877.797 1015.2 881.121 1015.7 885.272C1015.91 887.028 1016.55 888.641 1017.57 889.936C1018.25 890.796 1018.68 891.863 1018.82 893.023C1018.96 894.182 1018.81 895.477 1018.35 896.484C1017.66 897.986 1017.4 899.697 1017.61 901.436C1018.1 905.585 1020.89 908.352 1023.71 908.696C1026.05 908.981 1028.3 907.736 1029.57 905.454V905.454Z" fill="#050402"/>
<path d="M1039.16 878.573C1041.91 878.247 1046.03 875.554 1045.72 872.978C1045.42 870.403 1040.78 868.75 1038.04 869.076C1035.42 869.387 1033.54 871.771 1033.85 874.388C1034.16 877.006 1036.55 878.884 1039.16 878.573Z" fill="#050402"/>
<path d="M1049.69 906.375C1049.38 903.8 1044.75 902.147 1042 902.473C1039.39 902.784 1037.51 905.168 1037.82 907.785C1038.13 910.403 1040.51 912.281 1043.13 911.97C1045.88 911.644 1050 908.951 1049.69 906.375V906.375Z" fill="#050402"/>
<path d="M1050.37 891.849C1047.75 892.16 1045.88 894.544 1046.19 897.161C1046.5 899.779 1048.88 901.656 1051.5 901.345C1054.25 901.019 1058.36 898.327 1058.06 895.751C1057.75 893.175 1053.12 891.523 1050.37 891.849V891.849Z" fill="#050402"/>
<path d="M1048.66 877.446C1046.04 877.756 1044.17 880.14 1044.48 882.758C1044.79 885.375 1047.17 887.253 1049.79 886.942C1052.54 886.616 1056.65 883.923 1056.35 881.348C1056.04 878.772 1051.41 877.119 1048.66 877.446Z" fill="#050402"/>
</g>
<g clip-path="url(#clip10_23_2813)">
<path d="M1105.29 879.95C1106.33 878.075 1107.47 876.916 1108.79 876.403C1113.69 874.495 1116.87 869.835 1116.31 865.098C1115.75 860.361 1111.54 856.419 1106.33 855.712C1104.94 855.52 1103.55 854.661 1102.09 853.082C1100.32 851.16 1097.85 850.478 1095.65 851.302C1092.99 852.293 1090.92 855.616 1091.41 859.768C1091.62 861.523 1092.27 863.137 1093.29 864.432C1093.97 865.291 1094.42 866.517 1094.55 867.677C1094.69 868.836 1094.52 869.973 1094.07 870.979C1093.38 872.481 1093.12 874.193 1093.33 875.932C1093.82 880.081 1096.6 882.847 1099.43 883.192C1101.77 883.476 1104.01 882.232 1105.29 879.95Z" fill="#050402"/>
<path d="M1114.88 853.068C1117.63 852.742 1121.75 850.05 1121.44 847.474C1121.13 844.898 1116.5 843.245 1113.75 843.571C1111.14 843.882 1109.26 846.266 1109.57 848.884C1109.88 851.501 1112.26 853.379 1114.88 853.068V853.068Z" fill="#050402"/>
<path d="M1125.41 880.871C1125.1 878.296 1120.47 876.643 1117.72 876.969C1115.1 877.28 1113.23 879.664 1113.54 882.281C1113.85 884.899 1116.23 886.776 1118.85 886.466C1121.6 886.139 1125.71 883.447 1125.41 880.871V880.871Z" fill="#050402"/>
<path d="M1126.09 866.344C1123.47 866.655 1121.59 869.039 1121.9 871.656C1122.22 874.274 1124.6 876.151 1127.22 875.841C1129.96 875.514 1134.08 872.822 1133.78 870.246C1133.47 867.67 1128.84 866.018 1126.09 866.344Z" fill="#050402"/>
<path d="M1120.19 857.253C1120.51 859.871 1122.89 861.748 1125.51 861.437C1128.25 861.111 1132.37 858.419 1132.07 855.843C1131.76 853.267 1127.13 851.614 1124.38 851.94C1121.76 852.251 1119.88 854.635 1120.19 857.253Z" fill="#050402"/>
<path d="M1150.34 913.283C1151.38 911.408 1152.68 910.231 1153.99 909.717C1158.89 907.81 1161.9 903.01 1161.34 898.273C1160.78 893.536 1156.75 889.734 1151.53 889.027C1150.14 888.834 1148.6 887.995 1147.14 886.416C1145.37 884.493 1142.9 883.811 1140.7 884.635C1138.04 885.626 1135.97 888.95 1136.46 893.101C1136.67 894.857 1137.32 896.47 1138.34 897.765C1139.02 898.625 1139.45 899.692 1139.59 900.852C1139.72 902.011 1139.57 903.306 1139.12 904.313C1138.43 905.815 1138.17 907.526 1138.38 909.266C1138.87 913.415 1141.65 916.181 1144.48 916.525C1146.82 916.81 1149.06 915.565 1150.34 913.283V913.283Z" fill="#050402"/>
<path d="M1159.93 886.402C1162.68 886.076 1166.8 883.384 1166.49 880.807C1166.19 878.232 1161.55 876.579 1158.8 876.905C1156.19 877.216 1154.31 879.6 1154.62 882.217C1154.93 884.835 1157.31 886.713 1159.93 886.402Z" fill="#050402"/>
<path d="M1170.46 914.204C1170.15 911.629 1165.52 909.976 1162.77 910.302C1160.15 910.613 1158.27 912.997 1158.59 915.614C1158.9 918.232 1161.28 920.11 1163.9 919.799C1166.65 919.473 1170.76 916.78 1170.46 914.204V914.204Z" fill="#050402"/>
<path d="M1171.14 899.678C1168.52 899.989 1166.64 902.373 1166.95 904.99C1167.27 907.608 1169.65 909.485 1172.27 909.175C1175.01 908.848 1179.13 906.156 1178.83 903.58C1178.52 901.004 1173.89 899.352 1171.14 899.678V899.678Z" fill="#050402"/>
<path d="M1169.43 885.275C1166.81 885.585 1164.93 887.969 1165.24 890.587C1165.56 893.204 1167.94 895.082 1170.56 894.771C1173.3 894.445 1177.42 891.753 1177.12 889.177C1176.81 886.601 1172.18 884.948 1169.43 885.275Z" fill="#050402"/>
</g>
<g clip-path="url(#clip11_23_2813)">
<path d="M1226.05 887.779C1227.1 885.904 1228.24 884.745 1229.55 884.231C1234.45 882.324 1237.64 877.663 1237.08 872.926C1236.52 868.19 1232.31 864.247 1227.09 863.54C1225.7 863.348 1224.32 862.49 1222.86 860.911C1221.09 858.989 1218.62 858.307 1216.41 859.131C1213.76 860.121 1211.69 863.445 1212.18 867.596C1212.39 869.352 1213.04 870.965 1214.05 872.26C1214.73 873.12 1215.18 874.346 1215.32 875.506C1215.46 876.665 1215.29 877.801 1214.83 878.808C1214.15 880.31 1213.89 882.021 1214.1 883.761C1214.59 887.91 1217.37 890.676 1220.2 891.021C1222.54 891.305 1224.78 890.061 1226.05 887.779Z" fill="#050402"/>
<path d="M1235.65 860.897C1238.4 860.57 1242.51 857.879 1242.21 855.303C1241.9 852.727 1237.27 851.074 1234.52 851.4C1231.9 851.711 1230.03 854.095 1230.34 856.712C1230.65 859.33 1233.03 861.208 1235.65 860.897V860.897Z" fill="#050402"/>
<path d="M1246.17 888.7C1245.87 886.124 1241.23 884.471 1238.49 884.798C1235.87 885.108 1233.99 887.492 1234.3 890.11C1234.61 892.727 1237 894.605 1239.62 894.294C1242.36 893.968 1246.48 891.276 1246.17 888.7V888.7Z" fill="#050402"/>
<path d="M1246.86 874.172C1244.24 874.483 1242.36 876.867 1242.67 879.485C1242.98 882.102 1245.37 883.98 1247.98 883.669C1250.73 883.343 1254.85 880.651 1254.54 878.075C1254.24 875.499 1249.6 873.846 1246.86 874.172Z" fill="#050402"/>
<path d="M1240.96 865.082C1241.27 867.699 1243.66 869.577 1246.27 869.266C1249.02 868.94 1253.14 866.247 1252.83 863.672C1252.53 861.096 1247.89 859.442 1245.15 859.769C1242.53 860.08 1240.65 862.463 1240.96 865.082Z" fill="#050402"/>
<path d="M1271.1 921.112C1272.15 919.237 1273.45 918.059 1274.76 917.546C1279.66 915.638 1282.67 910.839 1282.11 906.101C1281.55 901.365 1277.51 897.562 1272.3 896.855C1270.91 896.663 1269.37 895.823 1267.91 894.244C1266.14 892.322 1263.67 891.64 1261.46 892.464C1258.81 893.455 1256.74 896.778 1257.23 900.93C1257.44 902.685 1258.09 904.299 1259.1 905.594C1259.78 906.453 1260.22 907.521 1260.35 908.681C1260.49 909.84 1260.34 911.135 1259.88 912.142C1259.2 913.643 1258.94 915.355 1259.15 917.094C1259.64 921.243 1262.42 924.009 1265.25 924.354C1267.59 924.638 1269.83 923.394 1271.1 921.112V921.112Z" fill="#050402"/>
<path d="M1280.7 894.231C1283.45 893.905 1287.56 891.212 1287.26 888.636C1286.95 886.061 1282.32 884.407 1279.57 884.734C1276.95 885.044 1275.08 887.428 1275.39 890.046C1275.7 892.664 1278.08 894.542 1280.7 894.231Z" fill="#050402"/>
<path d="M1291.22 922.033C1290.92 919.458 1286.28 917.804 1283.54 918.131C1280.92 918.441 1279.04 920.825 1279.35 923.443C1279.66 926.061 1282.05 927.939 1284.67 927.628C1287.41 927.302 1291.53 924.609 1291.22 922.033V922.033Z" fill="#050402"/>
<path d="M1291.91 907.507C1289.29 907.817 1287.41 910.201 1287.72 912.819C1288.03 915.436 1290.42 917.314 1293.03 917.003C1295.78 916.677 1299.9 913.985 1299.59 911.409C1299.29 908.833 1294.65 907.18 1291.91 907.507V907.507Z" fill="#050402"/>
<path d="M1290.2 893.103C1287.58 893.414 1285.7 895.798 1286.01 898.415C1286.32 901.033 1288.71 902.911 1291.32 902.6C1294.07 902.274 1298.19 899.581 1297.88 897.006C1297.58 894.43 1292.94 892.777 1290.2 893.103Z" fill="#050402"/>
</g>
<g clip-path="url(#clip12_23_2813)">
<path d="M1346.82 895.608C1347.86 893.733 1349.01 892.574 1350.32 892.06C1355.22 890.153 1358.41 885.492 1357.85 880.755C1357.28 876.019 1353.07 872.077 1347.86 871.37C1346.47 871.177 1345.08 870.319 1343.63 868.74C1341.86 866.818 1339.39 866.136 1337.18 866.96C1334.53 867.95 1332.46 871.274 1332.95 875.426C1333.16 877.181 1333.81 878.794 1334.82 880.089C1335.5 880.949 1335.95 882.175 1336.09 883.335C1336.23 884.494 1336.06 885.63 1335.6 886.637C1334.91 888.139 1334.66 889.85 1334.86 891.59C1335.36 895.739 1338.14 898.505 1340.97 898.85C1343.3 899.134 1345.55 897.89 1346.82 895.608Z" fill="#050402"/>
<path d="M1356.42 868.726C1359.16 868.4 1363.28 865.708 1362.98 863.132C1362.67 860.556 1358.04 858.903 1355.29 859.229C1352.67 859.54 1350.79 861.924 1351.1 864.541C1351.42 867.159 1353.8 869.037 1356.42 868.726V868.726Z" fill="#050402"/>
<path d="M1366.94 896.529C1366.64 893.954 1362 892.3 1359.26 892.627C1356.64 892.938 1354.76 895.321 1355.07 897.939C1355.38 900.556 1357.77 902.434 1360.38 902.123C1363.13 901.797 1367.25 899.105 1366.94 896.529V896.529Z" fill="#050402"/>
<path d="M1367.62 882.002C1365.01 882.313 1363.13 884.696 1363.44 887.314C1363.75 889.931 1366.13 891.809 1368.75 891.498C1371.5 891.172 1375.62 888.48 1375.31 885.904C1375 883.328 1370.37 881.675 1367.62 882.002Z" fill="#050402"/>
<path d="M1361.73 872.911C1362.04 875.528 1364.42 877.406 1367.04 877.095C1369.79 876.769 1373.91 874.076 1373.6 871.501C1373.29 868.925 1368.66 867.271 1365.91 867.598C1363.3 867.909 1361.42 870.293 1361.73 872.911Z" fill="#050402"/>
<path d="M1391.87 928.941C1392.91 927.066 1394.22 925.888 1395.53 925.375C1400.43 923.467 1403.44 918.668 1402.88 913.93C1402.31 909.194 1398.28 905.391 1393.07 904.684C1391.68 904.492 1390.13 903.652 1388.68 902.073C1386.91 900.151 1384.44 899.469 1382.23 900.293C1379.58 901.284 1377.51 904.608 1378 908.759C1378.21 910.514 1378.86 912.128 1379.87 913.423C1380.55 914.282 1380.98 915.35 1381.12 916.51C1381.26 917.669 1381.11 918.964 1380.65 919.971C1379.96 921.473 1379.71 923.184 1379.91 924.923C1380.41 929.072 1383.19 931.839 1386.02 932.183C1388.36 932.467 1390.6 931.223 1391.87 928.941V928.941Z" fill="#050402"/>
<path d="M1401.47 902.06C1404.21 901.734 1408.33 899.041 1408.03 896.465C1407.72 893.89 1403.09 892.236 1400.34 892.563C1397.72 892.874 1395.84 895.257 1396.15 897.875C1396.47 900.493 1398.85 902.371 1401.47 902.06Z" fill="#050402"/>
<path d="M1411.99 929.862C1411.69 927.287 1407.05 925.633 1404.3 925.96C1401.69 926.271 1399.81 928.654 1400.12 931.272C1400.43 933.89 1402.82 935.768 1405.43 935.457C1408.18 935.131 1412.3 932.438 1411.99 929.862V929.862Z" fill="#050402"/>
<path d="M1412.67 915.336C1410.06 915.646 1408.18 918.03 1408.49 920.648C1408.8 923.265 1411.18 925.143 1413.8 924.832C1416.55 924.506 1420.67 921.814 1420.36 919.238C1420.05 916.662 1415.42 915.009 1412.67 915.336V915.336Z" fill="#050402"/>
<path d="M1410.96 900.932C1408.35 901.243 1406.47 903.627 1406.78 906.245C1407.09 908.862 1409.47 910.74 1412.09 910.429C1414.84 910.103 1418.96 907.41 1418.65 904.835C1418.34 902.259 1413.71 900.606 1410.96 900.932Z" fill="#050402"/>
</g>
</g>
<defs>
<clipPath id="clip0_23_2813">
<rect width="81.6395" height="81.6395" fill="white" transform="translate(83.9856 766.324) rotate(83.2273)"/>
</clipPath>
<clipPath id="clip1_23_2813">
<rect width="81.6395" height="81.6395" fill="white" transform="translate(83.9856 766.324) rotate(83.2273)"/>
</clipPath>
<clipPath id="clip2_23_2813">
<rect width="81.6395" height="81.6395" fill="white" transform="translate(204.753 774.154) rotate(83.2273)"/>
</clipPath>
<clipPath id="clip3_23_2813">
<rect width="81.6395" height="81.6395" fill="white" transform="translate(325.521 781.982) rotate(83.2273)"/>
</clipPath>
<clipPath id="clip4_23_2813">
<rect width="81.6395" height="81.6395" fill="white" transform="translate(446.288 789.812) rotate(83.2273)"/>
</clipPath>
<clipPath id="clip5_23_2813">
<rect width="81.6395" height="81.6395" fill="white" transform="translate(567.056 797.64) rotate(83.2273)"/>
</clipPath>
<clipPath id="clip6_23_2813">
<rect width="81.6395" height="81.6395" fill="white" transform="translate(687.823 805.469) rotate(83.2273)"/>
</clipPath>
<clipPath id="clip7_23_2813">
<rect width="81.6395" height="81.6395" fill="white" transform="translate(808.591 813.298) rotate(83.2273)"/>
</clipPath>
<clipPath id="clip8_23_2813">
<rect width="81.6395" height="81.6395" fill="white" transform="translate(929.358 821.127) rotate(83.2273)"/>
</clipPath>
<clipPath id="clip9_23_2813">
<rect width="81.6395" height="81.6395" fill="white" transform="translate(1050.13 828.957) rotate(83.2273)"/>
</clipPath>
<clipPath id="clip10_23_2813">
<rect width="81.6395" height="81.6395" fill="white" transform="translate(1170.89 836.786) rotate(83.2273)"/>
</clipPath>
<clipPath id="clip11_23_2813">
<rect width="81.6395" height="81.6395" fill="white" transform="translate(1291.66 844.614) rotate(83.2273)"/>
</clipPath>
<clipPath id="clip12_23_2813">
<rect width="81.6395" height="81.6395" fill="white" transform="translate(1412.43 852.443) rotate(83.2273)"/>
</clipPath>
</defs>
</svg>
